<?xml version="1.0" encoding="UTF-8" standalone="no"?>
<svg width="750px" height="503px" viewBox="0 0 750 503" version="1.1" xmlns="http://www.w3.org/2000/svg" xmlns:xlink="http://www.w3.org/1999/xlink">
    <defs></defs>
    <g id="Page-1" stroke="none" stroke-width="1" fill="none" fill-rule="evenodd">
        <g id="Group-21">
            <rect id="Rectangle-8" fill="#D8D8D8" x="0" y="0" width="750" height="503"></rect>
            <g id="Group-20" transform="translate(5.658005, 6.286672)" fill-rule="nonzero" fill="#FFFFFF">
                <g id="我-(1)" transform="translate(131.551527, 169.991909)">
                    <path d="M366.929065,206.226605 L366.586297,205.562477 L293.04781,184.240308 C279.503539,181.803995 269.141198,168.917942 269.141198,153.273424 C269.141198,141.838115 275.213989,133.974791 282.977954,126.393968 C308.444017,106.762563 326.22614,76.0378231 326.22614,37.606233 C326.22614,36.0712351 326.125576,34.5659742 326.044841,33.0557571 C326.076002,32.0638143 326.337327,31.1377177 326.337327,30.1309064 C326.337327,-14.0739186 290.600281,-49.9183858 246.524921,-49.9183858 C202.440354,-49.9183858 166.712514,-14.0739186 166.712514,30.1309064 C166.712514,31.1377177 166.963924,32.0638143 167.005,33.0614213 C166.924265,34.5716384 166.813787,36.0712351 166.813787,37.606233 C166.813787,76.0378231 185.382008,107.186669 210.063389,126.393968 C218.32026,131.910898 223.898729,141.838115 223.898729,153.273424 C223.898729,168.91865 213.537096,181.803995 200.003448,184.240308 L126.46496,205.562477 L126.112278,206.226605 C103.556198,213.756449 87.1833869,234.757175 87.1833869,259.784438 C87.1833869,263.122068 87.1231902,269.355519 87.1139836,270.324097 C130.231153,302.767212 183.856552,322 241.974045,322 C304.228119,322 361.32935,299.934405 405.880618,263.200658 C405.872828,261.950994 405.867871,260.746644 405.867871,259.784438 C405.868579,234.757175 389.49506,213.756449 366.929065,206.226605 Z" id="Shape"></path>
                </g>
            </g>
        </g>
    </g>
</svg>