<svg xmlns="http://www.w3.org/2000/svg" xmlns:xlink="http://www.w3.org/1999/xlink" width="750" height="511" viewBox="0 0 750 511">
    <defs>
        <path id="a" d="M0 .14h751.944v510.813H0z"/>
    </defs>
    <g fill="none" fill-rule="evenodd">
        <use fill="#E9E9E9" xlink:href="#a"/>
        <path fill="#FFF" d="M330.684 226.49h40.418v-8.17h-40.418v8.17zm87.154 14.742h9.651V226.49h-9.65v14.742zm0 22.913h9.651v-14.743h-9.65v14.743zm-6.89 53.943a4.04 4.04 0 0 1-4.035-4.035 4.039 4.039 0 0 1 4.035-4.036 4.039 4.039 0 0 1 4.035 4.036 4.04 4.04 0 0 1-4.035 4.035zm24.71-53.943h10.67v-14.743h-10.67v14.743zm0-37.655h2.501c4.504 0 8.169 3.665 8.169 8.17v6.572h-10.67V226.49zm18.84 45.823v-37.652c0-9.01-7.33-16.34-16.339-16.34h-28.491v53.992h17.821v14.743h-17.821v8.17h17.821v14.741h-5.054c-1.686-4.724-6.191-8.12-11.487-8.12-5.295 0-9.8 3.396-11.486 8.12h-4.992v-62.94h7.03v-8.17h-7.03V226.49h7.03v-8.17H379.27v8.17h7.029v12.367h-7.029v8.17h7.029v62.94h-7.029v8.17h20.191c1.685 4.724 6.191 8.12 11.486 8.12 5.296 0 9.801-3.396 11.487-8.12h15.724c9.01 0 16.339-7.33 16.339-16.34h-8.17c0 4.506-3.665 8.17-8.169 8.17h-2.501v-14.74h18.84v-8.171h-18.84v-14.743h18.84zm-113.45 45.775a4.04 4.04 0 0 1-4.035-4.035 4.039 4.039 0 0 1 4.035-4.036 4.039 4.039 0 0 1 4.035 4.036 4.04 4.04 0 0 1-4.035 4.035zm-10.364-71.649h32.248v63.528h-10.398c-1.685-4.724-6.191-8.12-11.486-8.12-5.295 0-9.801 3.396-11.486 8.12h-15.725c-4.504 0-8.169-3.664-8.169-8.17v-29.509h-8.17v29.51c0 9.009 7.33 16.338 16.339 16.338h15.725c1.685 4.725 6.19 8.12 11.486 8.12 5.295 0 9.8-3.395 11.486-8.12h18.568V238.27h-40.418v8.17zm16.044-44.431c0-4.504 3.664-8.169 8.17-8.169h42.2c4.506 0 8.17 3.665 8.17 8.169v8.722h8.17v-8.722c0-9.008-7.33-16.34-16.34-16.34h-42.2c-9.01 0-16.34 7.332-16.34 16.34v8.722h8.17v-8.722zm-32.891 24.482h8.677v-8.17h-8.677c-9.008 0-16.339 7.33-16.339 16.34h8.17c0-4.505 3.665-8.17 8.169-8.17zm0 19.95h.508v48.736h8.169V238.27h-8.677c-9.008 0-16.339 7.33-16.339 16.339h8.17c0-4.504 3.665-8.169 8.169-8.169z"/>
    </g>
</svg>
