<svg xmlns="http://www.w3.org/2000/svg" width="270" height="142" viewBox="0 0 270 142">
    <g fill="none" fill-rule="evenodd" transform="translate(0 3)">
        <circle cx="245" cy="29" r="3" fill="#082B54"/>
        <path stroke="#FE2625" d="M10.243 54.193L6 55.485l1.292-4.242L6 47l4.243 1.292L14.485 47l-1.292 4.243 1.292 4.242z"/>
        <path stroke="#082B54" stroke-linecap="round" stroke-width="5" d="M25 136h6.457m7.84 0h206.715m8.877 0H261"/>
        <circle cx="3" cy="27" r="3" fill="#082B54"/>
        <circle cx="31" cy="33" r="7" stroke="#082B54"/>
        <circle cx="267" cy="37" r="2" stroke="#FF4847"/>
        <circle cx="258.5" cy="52.5" r="5.5" stroke="#082B54" stroke-dasharray="1"/>
        <g transform="translate(118)">
            <path fill="#D8D8D8" d="M97.49 130a13.999 13.999 0 0 1-11.5 6H14.01C6.272 136 0 129.742 0 122.008V61.992C0 54.265 6.274 48 14.01 48h3.5A13.915 13.915 0 0 0 15 55.992v60.016C15 123.742 21.272 130 29.01 130h68.48z"/>
            <path stroke="#082B54" stroke-linecap="round" stroke-width="5" d="M100 90.738v31.266c0 7.73-6.274 13.996-14.01 13.996H14.01C6.272 136 0 129.742 0 122.008V61.992C0 54.265 6.274 48 14.01 48h71.98C93.728 48 100 54.27 100 62.008v7.125"/>
            <path stroke="#082B54" stroke-width="5" d="M7.777 51.049L7.66 40.415C7.66 18.095 25.748 0 48.078 0h3.844C74.244 0 92.34 18.09 92.34 40.415V51.05"/>
            <path stroke="#082B54" stroke-width="5" d="M22.899 49.766l-.075-6.825C22.824 28.614 34.434 17 48.766 17h2.468c14.327 0 25.942 11.61 25.942 25.94v6.826"/>
            <path fill="#FF4847" d="M48.5 97.597C44.055 95.387 41 90.8 41 85.5 41 78.044 47.044 72 54.5 72S68 78.044 68 85.5c0 5.3-3.055 9.888-7.5 12.097V112.5A4.496 4.496 0 0 1 55.998 117h-2.996a4.5 4.5 0 0 1-4.502-4.499V97.597z"/>
            <path stroke="#082B54" stroke-width="5" d="M44 97.597c-4.445-2.21-7.5-6.796-7.5-12.097C36.5 78.044 42.544 72 50 72s13.5 6.044 13.5 13.5c0 5.3-3.055 9.888-7.5 12.097V112.5A4.496 4.496 0 0 1 51.498 117h-2.996A4.5 4.5 0 0 1 44 112.501V97.597z"/>
            <circle cx="97.5" cy="106.5" r="29.5" fill="#FFF" stroke="#082B54" stroke-width="5"/>
            <path fill="#D8D8D8" d="M81.311 89.466A23.433 23.433 0 0 0 74 106.5c0 12.979 10.521 23.5 23.5 23.5 8.58 0 16.087-4.599 20.189-11.466A23.42 23.42 0 0 1 101.5 125C88.521 125 78 114.479 78 101.5a23.39 23.39 0 0 1 3.311-12.034z"/>
            <circle cx="97.5" cy="106.5" r="23.5" stroke="#082B54" stroke-width="3"/>
            <g stroke="#082B54" stroke-linecap="round" stroke-width="6">
                <path d="M84.389 107.167l9.366 9.365M94.111 116.6l17.6-17.6"/>
            </g>
        </g>
        <g transform="matrix(-1 0 0 1 107 86)">
            <path stroke="#082B54" stroke-linecap="round" stroke-width="2" d="M28 2v15M24 1v10"/>
            <path fill="#D8D8D8" d="M4 6h5c2.761 0 5 2.242 5 5.005V50H4V6z"/>
            <path stroke="#082B54" stroke-width="5" d="M38.5 49.5h-36V7.997A5.5 5.5 0 0 1 8.003 2.5h24.994A5.496 5.496 0 0 1 38.5 7.997V49.5z"/>
            <path stroke="#082B54" stroke-width="5" d="M38.5 17.5h5a5 5 0 0 1 5 5v10c0 2.758-2.244 5-5 5h-5v-20z"/>
            <rect width="3" height="40" x="31" y="6" fill="#D8D8D8" rx="1.5"/>
        </g>
        <g fill="#C6D5DF" transform="matrix(-1 0 0 1 106 32)">
            <path d="M47.027 5H32.973h1.078a3 3 0 0 1 0 6h-1.078 14.054-.34a3 3 0 0 1 0-6h.34zM45 21H23h1.423c1.1 0 1.99.888 1.99 2 0 1.105-.89 2-1.99 2H23h22-2.94a1.99 1.99 0 0 1-1.991-2c0-1.105.892-2 1.991-2H45z"/>
            <rect width="32" height="5" x="26" rx="2.5"/>
            <path d="M30 36h-4 .46a1 1 0 0 1 0 2H26h4-.097a1 1 0 0 1 0-2H30z"/>
            <rect width="8.698" height="5.037" x="23" y="38" rx="2.519"/>
            <rect width="52" height="10" y="11" rx="5"/>
            <rect width="52" height="11" x="16" y="25" rx="5.5"/>
        </g>
    </g>
</svg>
