<svg xmlns="http://www.w3.org/2000/svg" width="33" height="31" viewBox="0 0 33 31">
    <path fill="#DDD" fill-rule="evenodd" d="M25.021 19.862c.37 1.731.697 3.299.98 4.702.13.592.25 1.184.359 1.776.109.591.212 1.128.31 1.61.098.483.18.894.245 1.234.065.34.109.553.13.641.066.439-.032.73-.293.872a1.812 1.812 0 0 1-.882.213c-.108 0-.266-.038-.473-.115a20.128 20.128 0 0 1-.473-.18l-8.522-4.999c-1.545.921-2.95 1.743-4.211 2.466-.545.307-1.083.614-1.617.921-.533.307-1.017.592-1.452.855-.436.263-.811.482-1.127.658a7.231 7.231 0 0 1-.636.328c-.218.11-.441.149-.67.116a1.403 1.403 0 0 1-.62-.247 1.214 1.214 0 0 1-.408-.477.877.877 0 0 1-.066-.575l.163-.641c.088-.34.186-.746.294-1.217.11-.472.234-.992.376-1.562.142-.57.288-1.151.44-1.743l1.11-4.604a601.51 601.51 0 0 0-4.75-4.094c-.424-.361-.805-.69-1.142-.986a94.491 94.491 0 0 0-.833-.723c-.218-.187-.337-.291-.36-.313a3.922 3.922 0 0 1-.668-.806c-.185-.296-.256-.597-.213-.904.044-.307.164-.548.36-.723.195-.176.413-.285.653-.329l10.088-.92 3.755-8.814c.13-.35.315-.652.555-.904.24-.252.566-.378.98-.378.217 0 .407.05.57.148.164.099.3.214.409.345.108.132.201.263.277.395.076.131.136.241.18.329l3.656 8.812 10.089.954c.435.11.74.241.914.395.174.153.261.394.261.723 0 .307-.092.576-.278.806-.184.23-.418.51-.701.838l-6.759 6.117z"/>
</svg>
