<svg xmlns="http://www.w3.org/2000/svg" xmlns:xlink="http://www.w3.org/1999/xlink" width="236" height="119" viewBox="0 0 236 119">
    <defs>
        <rect id="a" width="86" height="14" x=".5" rx="7"/>
        <rect id="b" width="86" height="14" x=".5" y="86" rx="7"/>
    </defs>
    <g fill="none" fill-rule="evenodd">
        <path stroke="#082B54" stroke-linecap="round" stroke-width="5" d="M3 116h7.457m16.84 0H182.62m18.402 0h16.989m8.877 0H233"/>
        <circle cx="3" cy="31" r="3" fill="#082B54"/>
        <circle cx="223" cy="75" r="3" fill="#082B54"/>
        <circle cx="9.5" cy="51.5" r="5.5" stroke="#FF4847" stroke-dasharray="1"/>
        <circle cx="26" cy="33" r="7" stroke="#082B54"/>
        <circle cx="210" cy="63" r="2" stroke="#FF4847"/>
        <circle cx="201.5" cy="78.5" r="5.5" stroke="#082B54" stroke-dasharray="1"/>
        <circle cx="200" cy="2.961" r="2" fill="#082B54"/>
        <path stroke="#082B54" stroke-dasharray="1" d="M151.01 18.961h66.98a5.008 5.008 0 0 0 5.01-5 5 5 0 0 0-5.01-5h-16.98M200.002 8.961h-19.004a3.001 3.001 0 0 1-2.998-3c0-1.656 1.352-3 2.998-3h13.004"/>
        <path fill="#AEDFA6" d="M157.347 101.84c6.82 0 12.348-10.187 12.348-16.467 0-6.281-5.528-11.373-12.348-11.373C150.528 74 145 79.092 145 85.373c0 6.28 5.528 16.467 12.347 16.467z"/>
        <path fill="#78A48D" d="M160.347 74.338c-.96-.22-1.965-.338-3-.338C150.528 74 145 79.092 145 85.373c0 6.28 5.528 16.467 12.347 16.467 1.035 0 2.04-.235 3-.654C154.977 98.839 151 90.7 151 85.373c0-5.328 3.978-9.8 9.347-11.035z"/>
        <path stroke="#082B54" stroke-width="4" d="M157.347 101.84c6.82 0 12.348-10.187 12.348-16.467 0-6.281-5.528-11.373-12.348-11.373C150.528 74 145 79.092 145 85.373c0 6.28 5.528 16.467 12.347 16.467z"/>
        <path fill="#AEDFA6" d="M163.97 74.715c4.418 0 12.044-9.311 12.044-16.215s-3.582-12.5-8-12.5-8 5.596-8 12.5-.462 16.215 3.956 16.215z"/>
        <path fill="#78A48D" d="M170.014 46.394a5.332 5.332 0 0 0-2-.394c-4.418 0-8 5.596-8 12.5s-.462 16.215 3.956 16.215c.69 0 1.46-.227 2.265-.637-2.55-2.215-2.221-9.754-2.221-15.578s2.55-10.719 6-12.106z"/>
        <path stroke="#082B54" stroke-width="4" d="M163.97 74.715c4.418 0 12.044-9.311 12.044-16.215s-3.582-12.5-8-12.5-8 5.596-8 12.5-.462 16.215 3.956 16.215z"/>
        <path fill="#AEDFA6" d="M148.647 76.46c3.038 0 3.353-5.594 3.353-9.46 0-3.866-2.462-7-5.5-7s-5.5 3.134-5.5 7 4.61 9.46 7.647 9.46z"/>
        <path fill="#78A48D" d="M148.5 60.477a4.47 4.47 0 0 0-2-.477c-3.038 0-5.5 3.134-5.5 7s4.61 9.46 7.647 9.46c.706 0 1.264-.302 1.706-.814C147.717 73.954 145 69.968 145 67c0-2.968 1.451-5.505 3.5-6.523z"/>
        <path stroke="#082B54" stroke-width="4" d="M148.647 76.46c3.038 0 3.353-5.594 3.353-9.46 0-3.866-2.462-7-5.5-7s-5.5 3.134-5.5 7 4.61 9.46 7.647 9.46z"/>
        <path fill="#AEDFA6" d="M137.23 101.397c3.59 0 3.77-6.979 3.77-11.397s-2.91-8-6.5-8-6.5 3.582-6.5 8 5.64 11.397 9.23 11.397z"/>
        <path fill="#78A48D" d="M136.5 82.386a5.392 5.392 0 0 0-2-.386c-3.59 0-6.5 3.582-6.5 8s5.64 11.397 9.23 11.397c.698 0 1.267-.264 1.731-.721C135.661 98.781 132 93.559 132 90c0-3.56 1.889-6.576 4.5-7.614z"/>
        <path stroke="#082B54" stroke-width="4" d="M137.23 101.397c3.59 0 3.77-6.979 3.77-11.397s-2.91-8-6.5-8-6.5 3.582-6.5 8 5.64 11.397 9.23 11.397z"/>
        <path stroke="#082B54" stroke-linecap="round" stroke-width="2" d="M142.5 64.5l-4.123-4.123M144.5 69h-12.042M134.5 92h-12M136.5 88.5l8.246-8.246M148.5 65.5l2-9M160.5 92.5l17-4M151.5 90.5l-9 6M133.5 87.5l-5-6M149.5 70h4M164.5 52.5l-7-10M164.5 60h-9M168.5 54.5l10-6M171.5 63.5l5 5M149.5 83.5l-10-4M156.5 85.5l4-3M166.5 86.5l4-8M168.5 49.5l-2-7M162.5 68.5l-6-4M155 78.5v-8M160.5 77.5l6-3M137.5 94.5l4-2"/>
        <path fill="#D8D8D8" d="M161.5 99H129l5.497 19H161.5h-14.003L142 99h19.5z"/>
        <path fill="#D8D8D8" d="M143 111h24v4h-24z"/>
        <path stroke="#082B54" stroke-width="5" d="M125.326 101.5h45.348l-4.05 14h-37.248l-4.05-14z"/>
        <path stroke="#082B54" stroke-linecap="round" stroke-width="2" d="M159 101.5v5M162 101.5v8M154.5 95h-7"/>
        <g transform="translate(51 18)">
            <path fill="#D8D8D8" d="M13 13h63v3H13zM11.005 16c-.003.194-.005.389-.005.584 0 14.25 9.034 26.39 21.686 31.007C24.964 41.55 20 32.147 20 21.584c0-1.903.161-3.769.47-5.584h-9.465z"/>
            <path stroke="#082B54" stroke-width="5" d="M11.47 11c-.309 1.815-.47 3.68-.47 5.584C11 34.807 25.773 49.58 43.996 49.58c18.223 0 32.996-14.773 32.996-32.996 0-1.903-.161-3.769-.47-5.584H11.47z"/>
            <path stroke="#082B54" stroke-linecap="round" stroke-width="4" d="M30.427 33.813a17.96 17.96 0 0 0 13.57 6.171 17.961 17.961 0 0 0 13.648-6.263"/>
            <use fill="#FFF" xlink:href="#a"/>
            <rect width="81" height="9" x="3" y="2.5" stroke="#082B54" stroke-width="5" rx="4.5"/>
            <use fill="#FFF" xlink:href="#b"/>
            <rect width="81" height="9" x="3" y="88.5" stroke="#082B54" stroke-width="5" rx="4.5"/>
            <ellipse cx="58" cy="75.5" fill="#FFF" rx="19" ry="19.5"/>
            <path fill="#D8D8D8" d="M13 84h63v3H13z"/>
            <path fill="#D8D8D8" d="M11.037 84.585A33.554 33.554 0 0 1 11 83c0-15.199 10.275-27.998 24.258-31.83C26.083 57.032 20 67.305 20 79c0 1.903.161 3.77.47 5.585h-9.433z"/>
            <path stroke="#082B54" stroke-width="5" d="M11.47 88.585A33.217 33.217 0 0 1 11 83c0-18.225 14.775-33 33-33s33 14.775 33 33c0 1.903-.161 3.77-.47 5.585H11.47z"/>
        </g>
    </g>
</svg>
