<svg xmlns="http://www.w3.org/2000/svg" width="28" height="28" viewBox="0 0 28 28">
    <path fill="#999" fill-rule="evenodd" d="M13.981 14.607l-2.776 2.681c-3.272 3.162-6.551 6.318-9.81 9.494-.447.437-1.201.357-1.367-.274-.086-.324.049-.575.28-.798 1.518-1.462 3.032-2.927 4.547-4.39l7.696-7.438c.107-.104.217-.206.4-.38-.11-.07-.217-.115-.296-.191C8.553 9.351 4.453 5.387.351 1.426.115 1.2-.053.956.019.616A.76.76 0 0 1 1.237.184c.132.104.249.228.37.345l12.16 11.75c.067.065.136.127.221.206.087-.08.168-.154.247-.23 4.1-3.963 8.201-7.925 12.3-11.89.239-.231.487-.416.846-.327.57.14.781.795.39 1.234-.187.209-.4.395-.602.59L15.272 13.36c-.06.058-.116.12-.208.215.12.102.238.192.344.295l12.18 11.77c.055.052.11.103.16.158.296.318.296.76.001 1.055a.764.764 0 0 1-1.069.01c-.586-.552-1.16-1.116-1.74-1.676L14.175 14.783c-.06-.058-.123-.112-.194-.176z"/>
</svg>
