<svg xmlns="http://www.w3.org/2000/svg" width="40" height="39" viewBox="0 0 40 39">
    <path fill="#999" fill-rule="evenodd" d="M19.973 21.024l-3.966 3.858c-4.675 4.552-9.359 9.093-14.013 13.665-.64.628-1.717.514-1.954-.394-.122-.467.07-.827.401-1.15 2.168-2.103 4.33-4.211 6.495-6.318L17.929 19.98c.154-.15.31-.296.574-.546-.158-.1-.312-.167-.424-.276C12.219 13.458 6.362 7.753.5 2.053.164 1.725-.076 1.375.027.886a1.084 1.084 0 0 1 1.74-.62c.19.149.356.327.529.495l17.371 16.913c.096.093.195.182.317.296.122-.116.239-.223.351-.333C26.193 11.934 32.052 6.232 37.906.526c.342-.334.696-.599 1.21-.471.814.202 1.116 1.144.556 1.776-.267.3-.571.568-.86.849L21.817 19.228c-.086.084-.166.173-.297.31.171.147.34.277.492.425l17.4 16.94c.077.075.156.148.229.227.422.459.421 1.096 0 1.519a1.085 1.085 0 0 1-1.526.015c-.838-.794-1.659-1.607-2.486-2.412L20.25 21.277c-.084-.083-.175-.16-.276-.253z"/>
</svg>
