<svg xmlns="http://www.w3.org/2000/svg" width="254" height="156" viewBox="0 0 254 156">
    <g fill="none" fill-rule="evenodd" transform="translate(0 1)">
        <path stroke="#082B54" stroke-linecap="round" stroke-width="5" d="M15 152h6.457m7.84 0h206.715m8.877 0H251"/>
        <path fill="#D8D8D8" d="M226 113h-20v27.999c0 6.627 5.376 12.001 12.007 12.001H226h-.993c-6.631 0-12.007-5.374-12.007-12.001V113h13z"/>
        <path stroke="#082B54" stroke-width="5" d="M203.5 115.5h28v25.499c0 5.247-4.256 9.501-9.507 9.501h-8.986c-5.25 0-9.507-4.255-9.507-9.501V115.5z"/>
        <path fill="#AEDFA6" d="M213.149 115.103s-2.357-.807-2.357-16.578c0-15.771 7.127-13.962 7.127-13.962s6.523-.165 6.523 14.076-2.068 16.464-2.068 16.464h-9.225z"/>
        <path fill="#78A48D" d="M220.118 85.717c-1.112-.676-1.99-.654-1.99-.654S211 83.253 211 99.025c0 15.771 2.358 16.578 2.358 16.578h7.112-2.112S216 114.796 216 99.025c0-8.707 2.172-12.055 4.118-13.308zm2.465 29.885h-2.113z"/>
        <path stroke="#082B54" stroke-width="5" d="M213.149 115.103s-2.357-.807-2.357-16.578c0-15.771 7.127-13.962 7.127-13.962s6.523-.165 6.523 14.076-2.068 16.464-2.068 16.464h-9.225z"/>
        <path stroke="#082B54" stroke-linecap="round" stroke-width="2" d="M217 92.5V76.221M220 95l10.5-4.5M219.5 98h17M216.5 95.5l-9-11M214.5 97.5l-10-4M215.5 103.5l-17 3M215.5 107.5l-11 3M220.5 105.5l10-3M219.5 91.5l7-6M219.5 109h12M213.835 100.769l-10.67 1.462M222 117.5v7.071M225 117.5V129"/>
        <path fill="#D8D8D8" d="M46 76.622V73C46 48.699 65.702 29 90.006 29h39.988c14.574 0 27.494 7.083 35.502 17.994A37.809 37.809 0 0 0 145.007 41H92.993C72.013 41 55 58.013 55 79v7.647c-.959-4.74-4.467-8.577-9-10.025zM109.153 129.355l.298 9h.507H49.25s-14.602-1.496-18.29-23.677c-3.496-21.023-3.207-38.06 8.311-39.783-2.123 7.302-1.38 18.345.689 30.783 3.688 22.181 18.29 23.677 18.29 23.677h50.902z"/>
        <path stroke="#082B54" stroke-width="5" d="M108.958 138.355H48.25s-14.602-1.496-18.29-23.677c-3.688-22.181-3.163-39.926 10.318-39.926 13.482 0 13.565 14.09 12.71 27.008.261 0 .578 2.074 6.215 1.037 5.636-1.037 13.227-6.284 27.09-4.891 12.116 1.217 18.548 4.919 22.664 5.832 4.116-.913 10.548-4.615 22.664-5.832 13.863-1.393 21.453 3.854 27.09 4.89 5.637 1.038 5.953-1.036 6.215-1.036-.855-12.918-.773-27.008 12.71-27.008 13.481 0 14.006 17.745 10.318 39.926-3.688 22.181-18.29 23.677-18.29 23.677h-60.707zM44.844 73.399v-1.572c0-22.346 15.586-40.327 34.625-40.327h59.906C158.41 31.5 174 49.487 174 71.833v1.094l-129.156.472z"/>
        <path stroke="#082B54" stroke-linecap="round" stroke-width="2" d="M155 54h14M48 66h14M46 62h10M149 50h20.5"/>
        <g stroke="#082B54" stroke-width="5" transform="translate(59 139)">
            <circle cx="6.5" cy="6.5" r="6.5"/>
            <circle cx="93.5" cy="6.5" r="6.5"/>
        </g>
        <circle cx="3" cy="49" r="3" fill="#082B54"/>
        <circle cx="9.5" cy="69.5" r="5.5" stroke="#FF4847" stroke-dasharray="1"/>
        <circle cx="26" cy="56" r="7" stroke="#082B54"/>
        <circle cx="222" cy="62" r="2" stroke="#082B54"/>
        <circle cx="237.5" cy="49.5" r="5.5" stroke="#082B54" stroke-dasharray="1"/>
        <path stroke="#FF4847" d="M245.243 77.193L241 78.485l1.292-4.242L241 70l4.243 1.292L249.485 70l-1.292 4.243 1.292 4.242z"/>
        <circle cx="176" cy="16" r="2" fill="#082B54"/>
        <g stroke="#FF4847" stroke-dasharray="1">
            <path d="M124.01 0h54.98A5.008 5.008 0 0 1 184 5a5 5 0 0 1-5.01 5h-16.98M168.002 16h-19.004A3.001 3.001 0 0 1 146 13c0-1.657 1.352-3 2.998-3h13.004"/>
        </g>
    </g>
</svg>
