<svg xmlns="http://www.w3.org/2000/svg" width="17" height="23" viewBox="0 0 17 23">
    <path fill="#666" fill-rule="evenodd" d="M15.446 18.32c0 1.784-1.696 3.23-3.789 3.23H5.343c-2.093 0-3.789-1.446-3.789-3.23v-2.154c0-1.526 1.245-2.797 2.914-3.135a6.76 6.76 0 0 0 4.032 1.34 6.76 6.76 0 0 0 4.033-1.34c1.668.338 2.913 1.609 2.913 3.135v2.154zM3.098 7.193C3.098 4.02 5.516 1.45 8.5 1.45s5.402 2.571 5.402 5.743c0 3.171-2.418 5.743-5.402 5.743s-5.402-2.572-5.402-5.743zm10.767 4.56a7.304 7.304 0 0 0 1.58-4.56c0-3.964-3.109-7.179-6.945-7.179-3.836 0-6.946 3.215-6.946 7.179 0 1.731.594 3.32 1.581 4.56-1.813.583-3.124 2.168-3.124 4.054v2.872c0 2.378 2.073 4.307 4.63 4.307h7.718c2.557 0 4.63-1.93 4.63-4.307v-2.872c0-1.886-1.31-3.47-3.125-4.054z"/>
</svg>
