<svg xmlns="http://www.w3.org/2000/svg" width="261" height="170" viewBox="0 0 261 170">
    <g fill="none" fill-rule="evenodd" transform="translate(1 2)">
        <circle cx="220" cy="73" r="3" fill="#082B54"/>
        <path stroke="#FE2625" d="M4.243 83.193L0 84.485l1.292-4.242L0 76l4.243 1.292L8.485 76l-1.292 4.243 1.292 4.242z"/>
        <path stroke="#082B54" d="M247.798 86.718l-1.002 4.32-3.029-3.24-4.32-1.002 3.24-3.029 1.003-4.32 3.028 3.24 4.32 1.003z"/>
        <path stroke="#082B54" stroke-linecap="round" stroke-width="5" d="M13 165h12.457m7.84 0h173.285m14.29 0h13.14m8.877 0H249"/>
        <circle cx="6" cy="56" r="3" fill="#082B54"/>
        <circle cx="31" cy="62" r="7" stroke="#082B54"/>
        <circle cx="257" cy="66" r="2" stroke="#FF4847"/>
        <circle cx="223.5" cy="49.5" r="5.5" stroke="#082B54" stroke-dasharray="1"/>
        <g transform="translate(60 .53)">
            <path fill="#D8D8D8" d="M37.168 124.441l-7.999 2.993c-9.313 3.485-16.861 14.368-16.861 24.31v12.359H82.05v-5H24.308v-12.36c0-8.47 5.478-17.623 12.86-22.302z"/>
            <path stroke="#082B54" stroke-width="5" d="M12.308 151.743c0-9.94 7.548-20.824 16.861-24.309l18.223-6.819 17.825 6.752c9.297 3.522 16.834 14.433 16.834 24.376v12.36H12.308v-12.36z"/>
            <rect width="20.513" height="28.718" x="36.923" y="106.667" fill="#FFF" stroke="#082B54" stroke-width="5" rx="10.256"/>
            <ellipse cx="7.385" cy="68.513" fill="#FFF" stroke="#082B54" stroke-width="5" rx="7.385" ry="9.436"/>
            <ellipse cx="86.974" cy="68.513" fill="#FFF" stroke="#082B54" stroke-width="5" rx="7.385" ry="9.436"/>
            <path fill="#FFF" d="M28 108h38v13H28z"/>
            <path fill="#D8D8D8" d="M17.514 69.041c-6.872.895-12.18 6.77-12.18 13.886v12.252c0 14.505 11.752 26.257 26.25 26.257h31.19c6.481 0 12.412-2.347 16.99-6.237a26.242 26.242 0 0 1-7.99 1.237h-31.19c-14.498 0-26.25-11.752-26.25-26.257V77.927c0-3.374 1.193-6.468 3.18-8.886z"/>
            <path stroke="#082B54" stroke-width="5" d="M5.333 82.927c0-7.734 6.274-14.004 14.009-14.004h55.675c7.737 0 14.009 6.27 14.009 14.004v12.252c0 14.502-11.748 26.257-26.252 26.257h-31.19c-14.498 0-26.25-11.752-26.25-26.257V82.927z"/>
            <path fill="#D8D8D8" d="M81.589 56.615c-2.075-.021-3.977-1.3-5.458-3.414a6.222 6.222 0 0 1-.629-.18c1.567-2.142 2.53-4.524 2.753-7.079a13.408 13.408 0 0 0-.52-5.004 32.704 32.704 0 0 0 3.268-1.931c-.613 2.006-.964 4.284-.977 6.7-1.78 4.131-1.715 8.057.56 10.178.306.285.641.528 1.003.73zm13.673-23.747c-.285-1.016-.791-1.896-1.53-2.586-1.136-1.059-2.68-1.537-4.44-1.495a14.629 14.629 0 0 1-.92 2.297c.09-.005.179-.007.269-.007 1.68 0 3.247.824 4.572 2.248.7-.217 1.386-.37 2.05-.457zm-78.12 23.593c-3.784-.525-8.166-4.142-11.04-9.546-1.214-2.283-2.013-4.611-2.404-6.797a13.27 13.27 0 0 1-.286-4.111c.508-5.81 4.835-10.726 11.406-13.96a13.091 13.091 0 0 1-.049-1.124C14.77 9.368 30.015 0 48.821 0 59.5 0 69.033 3.022 75.276 7.75 69.761 5.385 63.054 4 55.821 4c-18.806 0-34.052 9.368-34.052 20.923 0 .377.016.752.049 1.124-6.57 3.234-10.898 8.15-11.406 13.96a13.27 13.27 0 0 0 .286 4.11c.391 2.187 1.19 4.515 2.404 6.798 1.15 2.163 2.542 4.04 4.04 5.546z"/>
            <path stroke="#082B54" stroke-width="5" d="M86.213 29.325c-1.325-1.424-2.893-2.248-4.572-2.248-.09 0-.18.002-.27.007.976-1.948 1.5-4.017 1.5-6.16C82.872 9.367 67.628 0 48.822 0 30.015 0 14.769 9.368 14.769 20.923c0 .377.016.752.049 1.124-6.57 3.234-10.898 8.15-11.406 13.96a13.27 13.27 0 0 0 .286 4.11c.391 2.187 1.19 4.515 2.404 6.798 3.684 6.927 9.847 10.918 14.05 9.224 4.531 1.889 9.749 3.188 15.358 3.679 18.734 1.639 34.738-6.364 35.745-17.876a13.408 13.408 0 0 0-.52-5.004 32.704 32.704 0 0 0 3.268-1.931c-.613 2.006-.964 4.284-.977 6.7-1.78 4.131-1.715 8.057.56 10.178.706.658 1.57 1.092 2.545 1.316 1.494 2.132 3.415 3.414 5.51 3.414 3.639 0 6.75-3.867 8.013-9.334.103-.106.204-.214.306-.322 5.562-5.966 7.251-13.432 3.771-16.677-1.762-1.643-4.511-1.889-7.518-.957z"/>
            <path fill="#FFF" stroke="#082B54" stroke-linecap="round" stroke-width="5" d="M72.803 29.64c12.35 7.894 11.288 26.97 11.288 26.97v19.703c0 7.248-5.872 13.123-13.128 13.123H23.373c-7.25 0-13.128-5.877-13.128-13.123V50.046s.85-9.109 5.071-14.237 3.695-5.493 6.695-5.493c2.999 0 6.407 5.55 9.22 6.775 2.812 1.226 24.803 8.343 45.2-10.38"/>
            <g transform="translate(29.538 75.744)">
                <ellipse cx="18.051" cy="20.667" fill="#FFF" rx="18.051" ry="16.821"/>
                <path stroke="#082B54" stroke-linecap="round" stroke-width="5" d="M0 18.205C0 10.94 5.401 4.933 12.402 3.98m11.02-.036c7.14.831 12.68 6.898 12.68 14.262M22.974.592v1.945c0 2.535-2.21 4.591-4.923 4.591-2.718 0-4.922-2.051-4.922-4.591V.592"/>
            </g>
            <path stroke="#082B54" stroke-linecap="round" stroke-width="4" d="M36.556 92.923a21.817 21.817 0 0 0 10.882 2.888c4.086 0 7.911-1.118 11.186-3.065"/>
            <g stroke="#082B54" stroke-linecap="round" stroke-width="4">
                <path d="M34.872 68.923a5.744 5.744 0 0 0-11.487 0M71.795 68.923a5.744 5.744 0 1 0-11.487 0"/>
            </g>
        </g>
        <g transform="translate(165 72)">
            <path fill="#D8D8D8" d="M4 31h7.5c4.142 0 7.5 3.352 7.5 7.506V83H4V31z"/>
            <rect width="3" height="51" x="40" y="31" fill="#D8D8D8" rx="1.5"/>
            <rect width="45" height="59" x="2.5" y="24.5" stroke="#082B54" stroke-width="5" rx="12"/>
            <g fill="#FFF" stroke="#082B54" stroke-width="4" transform="translate(5 81)">
                <circle cx="6" cy="6" r="6"/>
                <circle cx="35" cy="6" r="6"/>
            </g>
            <g stroke="#082B54" stroke-linecap="round" stroke-width="2">
                <path d="M41 26v15M38 25v10"/>
            </g>
            <g stroke="#082B54" transform="translate(11)">
                <rect width="23" height="1" x="2.5" y="2.5" stroke-width="5" rx=".5"/>
                <g transform="translate(5 3)">
                    <rect width="1" height="20" x=".5" y=".5" rx=".5"/>
                    <rect width="1" height="20" x="16.5" y=".5" rx=".5"/>
                </g>
            </g>
        </g>
    </g>
</svg>
