<svg xmlns="http://www.w3.org/2000/svg" xmlns:xlink="http://www.w3.org/1999/xlink" width="43" height="31" viewBox="0 0 43 31">
    <defs>
        <rect id="a" width="12.647" height="2.5" x="30.353" y="25" rx="1.25"/>
    </defs>
    <g fill="none" fill-rule="evenodd">
        <path stroke="#666" stroke-width="2" d="M1 3.999A2.999 2.999 0 0 1 3.993 1h27.425c1.703 0 3.317 1.412 3.55 3.106l2.426 17.58c.37 2.683-1.486 4.814-4.185 4.814H3.993A2.991 2.991 0 0 1 1 23.501V4z"/>
        <use fill="#D8D8D8" xlink:href="#a"/>
        <rect width="11.647" height="1.5" x="30.853" y="25.5" stroke="#666" rx=".75"/>
        <rect width="2.529" height="5" x="40.471" y="22.5" fill="#666" rx="1.265"/>
        <rect width="6.853" height="6.75" x="7.324" y="7.25" stroke="#666" stroke-width="2" rx="2"/>
        <ellipse cx="11.382" cy="26.25" fill="#FFF" stroke="#666" stroke-width="2" rx="3.794" ry="3.75"/>
        <path stroke="#666" stroke-width="2" d="M29.353 26.5h-8.118V8.25a1 1 0 0 1 1-1h6.119c.556 0 .999.442.999 1V26.5z"/>
    </g>
</svg>
