<svg xmlns="http://www.w3.org/2000/svg" width="38" height="40" viewBox="0 0 38 40">
    <g fill="none" fill-rule="evenodd">
        <path stroke="#666" stroke-width="2" d="M11.914 19.752C10.061 17.703 9 14.943 9 12 9 5.918 13.508 1 19 1c5.493 0 10 4.917 10 11 0 2.944-1.061 5.704-2.914 7.752l-1.121 1.24 1.622.402C32.646 22.894 37 28.434 37 34.84v.88c0 1.415-1.073 2.265-3.574 2.764-2.152.429-4.393.515-10.08.515h-8.694C4.022 39 1 38.388 1 35.721v-.88c0-6.409 4.354-11.948 10.413-13.448l1.622-.401-1.12-1.24z"/>
        <path fill="#FF4847" d="M19 19c-3.86 0-7-3.14-7-7s3.14-7 7-7 7 3.14 7 7-3.14 7-7 7z"/>
    </g>
</svg>
