<svg xmlns="http://www.w3.org/2000/svg" width="52" height="41" viewBox="0 0 52 41">
    <g fill="#FF4544" fill-rule="evenodd">
        <path d="M45.588 11.619c.019 1.187-.936 2.087-3.182 2.101h-5.637V4.984h8.809l.01 6.635zM30.662 2.15v14.428h14.05c4.606 0 6.91-1.551 6.91-4.654V2.15h-20.96zM12.876 30.074h29.002l-.015 4.285c-.177 1.988-.705 2.953-2.995 2.926L12.89 37.28l-.014-7.206zm0-9.167h29.002v5.658l-28.973.057-.03-5.715zM6.75 40.819H39.92c5.528.147 8.212-2.252 8.061-7.204V17.406H6.751V40.82zM28.621 10.993v-2.85l-10.475.014-.008-3.173h10.483l.005-2.834s-15.912.015-15.885-.005c.614-.565 1.747-2.043 1.77-2.142.024-.011-8.09.015-8.09.015C5.273 2.204 3.467 4.25.001 5.168L.01 7.115c4.514.198 7.744-1.374 9.05-2.134l2.986.002V8.18L.95 8.139l.013 2.854h11.084v.84L6.621 13.33a8.437 8.437 0 0 1-2.444.345L.962 13.64v2.95l5.227.036c.863 0 1.916-.145 3.163-.432l5.75-2.204 5.606 2.204c.863.229 1.916.345 3.162.345l4.751.05v-2.95h-2.576c-.576 0-1.312-.136-2.175-.308l-5.768-1.59v-.777l10.519.03z"/>
    </g>
</svg>
