<svg xmlns="http://www.w3.org/2000/svg" xmlns:xlink="http://www.w3.org/1999/xlink" width="34" height="25" viewBox="0 0 34 25">
    <defs>
        <rect id="a" width="10" height="2" x="24" y="20" rx="1"/>
    </defs>
    <g fill="none" fill-rule="evenodd">
        <path stroke="#666" stroke-width="2" d="M1 4.01A3.006 3.006 0 0 1 3.997 1h20.006c1.704 0 3.316 1.409 3.546 3.094l1.648 12.088C29.564 18.87 27.71 21 25.005 21h-21A3.01 3.01 0 0 1 1 17.99V4.01z"/>
        <use fill="#D8D8D8" xlink:href="#a"/>
        <rect width="9" height="1" x="24.5" y="20.5" stroke="#666" rx=".5"/>
        <rect width="2" height="4" x="32" y="18" fill="#666" rx="1"/>
        <rect width="5" height="5" x="6" y="6" stroke="#666" stroke-width="2" rx="2"/>
        <ellipse cx="9" cy="21" fill="#FFF" stroke="#666" stroke-width="2" rx="3" ry="3"/>
        <path stroke="#666" stroke-width="2" d="M23 21h-6V7c0-.556.443-1 .998-1h4.004c.553 0 .998.444.998 1v14z"/>
    </g>
</svg>
