<svg width="50" height="50" viewBox="0 0 50 50" xmlns="http://www.w3.org/2000/svg"><title>5040A65A-24EE-4DC8-B07E-AA036005481A</title><g fill="none" fill-rule="evenodd"><path d="M47.005 21.714c1.199-2.043.743-3.664-1.365-4.86-2.11-1.198-3.18-2.967-3.212-5.308-.032-2.34-1.276-3.528-3.73-3.557-2.453-.032-4.308-1.053-5.563-3.065S30.183 2.478 28.04 3.62c-2.141 1.145-4.282 1.145-6.424 0-2.14-1.143-3.839-.708-5.094 1.303-1.255 2.012-3.11 3.033-5.564 3.065-2.454.03-3.696 1.216-3.729 3.557-.033 2.341-1.104 4.11-3.212 5.307-2.11 1.197-2.564 2.818-1.366 4.86 1.2 2.043 1.2 4.087 0 6.129-1.198 2.042-.743 3.662 1.366 4.86 2.108 1.197 3.18 2.966 3.212 5.308.032 2.34 1.275 3.527 3.729 3.557 2.454.032 4.309 1.052 5.564 3.065 1.255 2.011 2.953 2.445 5.094 1.302 2.142-1.144 4.283-1.144 6.424 0 2.143 1.143 3.84.709 5.095-1.302 1.255-2.013 3.11-3.033 5.563-3.065 2.454-.03 3.698-1.218 3.73-3.557.033-2.342 1.103-4.11 3.212-5.308 2.108-1.198 2.564-2.818 1.365-4.86-1.199-2.042-1.199-4.086 0-6.128z" fill="#6AC82A"/><path d="M42.898 22.281c.977-1.664.606-2.985-1.112-3.96-1.719-.976-2.59-2.417-2.617-4.325-.026-1.907-1.04-2.874-3.04-2.898-1.998-.026-3.51-.858-4.532-2.498-1.023-1.638-2.406-1.992-4.151-1.06-1.745.932-3.49.932-5.235 0-1.744-.932-3.128-.578-4.15 1.06-1.024 1.64-2.535 2.472-4.534 2.498-2 .024-3.012.991-3.039 2.898-.027 1.908-.899 3.349-2.617 4.325-1.719.975-2.089 2.296-1.113 3.96.977 1.665.977 3.33 0 4.993-.976 1.665-.606 2.985 1.113 3.96 1.718.976 2.59 2.418 2.617 4.325.027 1.907 1.039 2.874 3.038 2.9 2 .025 3.511.856 4.534 2.496 1.023 1.639 2.407 1.993 4.15 1.061 1.746-.932 3.49-.932 5.236 0 1.745.932 3.128.578 4.15-1.06 1.023-1.64 2.535-2.472 4.534-2.498 2-.025 3.013-.992 3.039-2.899.026-1.907.898-3.349 2.617-4.324 1.718-.976 2.089-2.296 1.112-3.96-.976-1.665-.976-3.33 0-4.994z" fill="#FFF"/><g><path d="M27.896 14.698a6.623 6.623 0 0 0-1.595-.56 6.617 6.617 0 0 0-1.108-.129c-.078-.006-.162-.006-.247-.006-.43 0-.847.04-1.256.114-2.908.56-5.103 3.024-5.103 5.966 0 2.085 1.094 3.921 2.76 5.014v.007h.006c.353.223.72.419 1.116.58h.007a6.289 6.289 0 0 0 1.856.446h.007c.007.007.007.007.014.007.184.02.367.027.558.027h.042a6.53 6.53 0 0 0 3.571-1.053c0-.007.008-.007.015-.007h.007a6.395 6.395 0 0 0 2.151-2.427c-.966 1.408-.944 1.381-.923 1.36l.19-.222c.1-.121.19-.243.276-.371.162-.223.303-.459.423-.702.056-.101.106-.202.148-.304.007-.013.007-.02.007-.027a5.688 5.688 0 0 0 .487-2.32v-.008c0-2.335-1.383-4.366-3.409-5.385zm-2.985 9.947c-.325 0-.65-.034-.953-.101-.014 0-.021 0-.028-.007a4.75 4.75 0 0 1-2.677-1.568c-.549-.49-1.078-1.624-1.078-2.886s.529-2.396 1.397-3.226a4.848 4.848 0 0 1 3.375-1.33 6.1 6.1 0 0 1 .5.021 4.92 4.92 0 0 1 3.05 1.493c.679.637 1.213 1.774 1.213 3.03v.013a4.3 4.3 0 0 1-.437 1.902 2.004 2.004 0 0 1-.128.243 2.553 2.553 0 0 1-.155.263 1.599 1.599 0 0 1-.092.142v.007a5.621 5.621 0 0 1-.529.614l-.056.054c-.254.243-.53.459-.833.634-.711.44-1.58.702-2.513.702h-.056zm9.53 3.9l-1.13 1.079a10.222 10.222 0 0 0-3.758-2.603l2.622 1.538 1.128-1.079c.008.008.024.015.032.023.398.32.764.669 1.105 1.042z" fill="#6AC82A"/><path d="M28.542 25.101c1.804.471 3.434 1.292 4.761 2.38l-1.128 1.078c-1.852-1.474-4.404-2.394-7.226-2.394h-.007c-2.893 0-5.485.958-7.345 2.486-1.868 1.535-2.98 3.602-2.989 5.875 0 .107 0 .213.016.32h-1.59c-.008-.107-.008-.213-.008-.32-.007-2.766 1.367-5.26 3.53-7.023 1.335-1.094 2.972-1.922 4.792-2.402a13.877 13.877 0 0 1 3.573-.456h.028c1.248 0 2.457.16 3.593.456z" fill="#6AC82A"/><path d="M26.86 31.264c0 2.733 2.316 4.948 5.174 4.948 2.857 0 5.174-2.215 5.174-4.948 0-2.732-2.317-4.947-5.174-4.947-2.858 0-5.175 2.215-5.175 4.947z" fill="#6AC82A"/><path fill="#FFF" d="M31.12 33.867l-1.125-1.075 4.32-4.13 1.123 1.075z"/><path fill="#FFF" d="M32.243 32.791l-1.123 1.076-2.49-2.382 1.123-1.074z"/></g></g></svg>