<?xml version="1.0" encoding="UTF-8"?>
<svg width="40px" height="40px" viewBox="0 0 40 40" version="1.1" xmlns="http://www.w3.org/2000/svg" xmlns:xlink="http://www.w3.org/1999/xlink">
    <!-- Generator: sketchtool 41.1 (35376) - http://www.bohemiancoding.com/sketch -->
    <title>2D5EFA1B-2424-471C-BF97-BAC6EFBEEE65</title>
    <desc>Created with sketchtool.</desc>
    <defs></defs>
    <g id="Page-1" stroke="none" stroke-width="1" fill="none" fill-rule="evenodd">
        <g id="切图" transform="translate(-572.000000, -161.000000)" fill="#484848">
            <path d="M597.436591,199.727567 C596.538409,199.727567 595.6575,199.341432 595.081455,198.693467 C594.3655,197.893868 592.860182,196.709017 591.905,196.709017 C590.913545,196.709017 589.360727,197.976737 588.749273,198.654677 C587.897727,199.599737 586.350955,199.939147 585.189364,199.415485 L585.068455,199.358182 L580.505,196.741636 C579.358955,195.921761 578.924545,194.325209 579.490227,193.02487 C579.580909,192.808882 579.826182,192.104495 579.826182,191.541161 C579.826182,189.37246 578.098045,187.608407 575.9735,187.608407 L575.817182,187.608407 L575.815455,187.608407 C574.608955,187.608407 573.670182,186.651887 573.394682,185.170822 C573.328182,184.804083 573,182.926305 573,181.37824 C573,179.830176 573.328182,177.952398 573.392955,177.59183 C573.667591,176.104594 574.606364,175.147192 575.786091,175.147192 L575.974364,175.147192 C578.098909,175.147192 579.827045,173.383139 579.827045,171.214438 C579.827045,170.64846 579.577455,169.935257 579.490227,169.729848 C578.923682,168.426864 579.362409,166.831194 580.509318,166.018371 L580.631955,165.936384 L585.413045,163.261653 C586.690364,162.707135 588.132636,163.072993 588.986773,163.991606 C589.688909,164.741835 591.165727,165.855278 592.095,165.855278 C593.018227,165.855278 594.482955,164.763875 595.181636,164.026869 C596.036636,163.118836 597.574773,162.802347 598.717364,163.307495 L598.84,163.366561 L603.457864,165.991042 C604.640182,166.833838 605.076318,168.43039 604.510636,169.732492 C604.418227,169.952007 604.172955,170.651105 604.172955,171.21532 C604.172955,173.384021 605.901091,175.148074 608.025636,175.148074 L608.184545,175.148074 L608.185409,175.148074 C609.391045,175.148074 610.330682,176.104594 610.607045,177.584777 C610.671818,177.952398 611,179.830176 611,181.37824 C611,182.926305 610.671818,184.804083 610.606182,185.164651 C610.329818,186.651887 609.389318,187.608407 608.210455,187.608407 L608.024773,187.608407 C605.900227,187.608407 604.172091,189.37246 604.172091,191.541161 C604.172091,192.065705 604.387136,192.729539 604.514091,193.038094 C605.075455,194.326972 604.639318,195.922643 603.492409,196.738109 L603.370636,196.818334 L598.634455,199.479841 C598.264818,199.644698 597.8615,199.727567 597.436591,199.727567 Z M591.905864,194.944964 C594.041636,194.944964 596.2655,197.401062 596.358773,197.505089 C596.724955,197.917671 597.458182,198.079883 597.950455,197.86125 L602.492318,195.301125 C602.985455,194.926451 603.158182,194.26438 602.931045,193.742481 C602.810136,193.448913 602.444818,192.487984 602.444818,191.541161 C602.444818,188.400071 604.947636,185.845236 608.024773,185.845236 L608.183682,185.845236 L608.183682,185.845236 C608.511864,185.845236 608.799455,185.432653 608.909136,184.841991 C608.945409,184.638345 609.272727,182.802001 609.272727,181.37824 C609.272727,179.954479 608.945409,178.119018 608.908273,177.913608 C608.797727,177.322946 608.511,176.910364 608.210455,176.910364 L608.023909,176.910364 C604.946773,176.910364 602.443955,174.355528 602.443955,171.214438 C602.443955,170.115982 602.941409,168.990197 602.946591,168.979618 C603.1625,168.48064 602.975955,167.798293 602.504409,167.463291 L598.040273,164.929613 C597.414136,164.669545 596.787136,164.863494 596.423545,165.249629 C596.330273,165.347485 594.155636,167.617568 592.093273,167.617568 C590.017955,167.617568 587.826909,165.305169 587.7345,165.207313 C587.361409,164.805309 586.629909,164.646624 586.130727,164.866139 L581.509409,167.456238 C581.015409,167.831793 580.841818,168.492983 581.068091,169.014882 C581.100909,169.070421 581.554318,170.175048 581.554318,171.21532 C581.554318,174.35641 579.0515,176.911245 575.974364,176.911245 L575.817182,176.911245 C575.817182,176.911245 575.817182,176.911245 575.816318,176.911245 C575.486409,176.911245 575.200545,177.322946 575.091727,177.913608 C575.054591,178.119018 574.727273,179.956243 574.727273,181.37824 C574.727273,182.800238 575.054591,184.637463 575.091727,184.842873 C575.201409,185.433535 575.488136,185.846999 575.788682,185.846999 L575.974364,185.846117 C579.0515,185.846117 581.554318,188.400953 581.554318,191.542043 C581.554318,192.614933 581.075,193.730139 581.069818,193.741599 C580.836636,194.276722 581.022318,194.959069 581.493,195.295835 L585.870773,197.795131 C586.516773,198.066659 587.120455,197.856842 587.477136,197.46101 C587.500455,197.435444 589.769227,194.944964 591.905864,194.944964 Z M592,188.656613 C588.060091,188.656613 584.855136,185.385048 584.855136,181.364135 C584.855136,177.343222 588.060955,174.071658 592,174.071658 C595.939045,174.071658 599.143136,177.343222 599.143136,181.364135 C599.143136,185.385048 595.939045,188.656613 592,188.656613 Z M592,175.833947 C589.012682,175.833947 586.582409,178.31473 586.582409,181.363253 C586.582409,184.411777 589.012682,186.892559 592,186.892559 C594.986455,186.892559 597.415864,184.411777 597.415864,181.363253 C597.415864,178.31473 594.986455,175.833947 592,175.833947 Z" id="Shape-Copy-20"></path>
        </g>
    </g>
</svg>