<?xml version="1.0" encoding="UTF-8"?>
<svg width="34px" height="40px" viewBox="0 0 34 40" version="1.1" xmlns="http://www.w3.org/2000/svg" xmlns:xlink="http://www.w3.org/1999/xlink">
    <!-- Generator: sketchtool 41.1 (35376) - http://www.bohemiancoding.com/sketch -->
    <title>DC5C7D45-ECA7-4FAA-89EC-15BEDCF04102</title>
    <desc>Created with sketchtool.</desc>
    <defs></defs>
    <g id="Page-1" stroke="none" stroke-width="1" fill="none" fill-rule="evenodd">
        <g id="切图" transform="translate(-481.000000, -161.000000)" fill="#7F7F7F">
            <g id="编辑" transform="translate(482.000000, 164.000000)">
                <path d="M25.7655708,33.9770537 L3.7051497,33.9770537 C1.67796823,33.9770537 0.0283604796,32.340213 0.0283604796,30.3286818 L0.0283604796,6.00691653 C0.0283604796,3.99561908 1.67796823,2.35877837 3.7051497,2.35877837 L20.863159,2.35877837 C21.5408363,2.35877837 22.0888209,2.90357377 22.0888209,3.57475947 C22.0888209,4.24606209 21.5408364,4.79085746 20.863159,4.79085746 L3.7051497,4.79085749 C3.0298283,4.79085749 2.47948785,5.33678274 2.47948785,6.00687758 L2.47948785,30.3286818 C2.47948785,31.0000623 3.02982826,31.5448577 3.7051497,31.5448577 L25.7656101,31.5448577 C26.4419523,31.5448577 26.9910756,31.0001013 26.9910756,30.3286818 L26.9910756,10.8713865 C26.9910756,10.2000449 27.5390208,9.65524949 28.2166981,9.65524949 C28.894454,9.65524949 29.4422029,10.2000059 29.4422029,10.8713865 L29.4422029,30.3287207 C29.4421637,32.340252 27.7925167,33.9770537 25.7655708,33.9770537 L25.7655708,33.9770537 Z M18.5651658,14.5197195 C18.2514372,14.5197195 17.9377478,14.4003811 17.6987801,14.1632239 C17.2194704,13.6878185 17.2194704,12.9192686 17.6987801,12.4438242 L29.8784389,0.358273191 C30.3577094,-0.117326994 31.1323324,-0.117326994 31.6114458,0.358273191 C32.0907556,0.833639604 32.0907556,1.60222849 31.6114458,2.07786762 L19.431787,14.1632239 C19.19278,14.4017058 18.8790121,14.5197195 18.5651658,14.5197195 L18.5651658,14.5197195 Z M13.5097769,14.5197195 L6.15627706,14.5197195 C5.47969915,14.5197195 4.93061521,13.9748851 4.93061521,13.3035435 C4.93061521,12.6322409 5.47969915,12.0874066 6.15627706,12.0874066 L13.5098162,12.0874066 C14.186237,12.0874066 14.7352817,12.6322409 14.7352817,13.3035435 C14.7352424,13.9748851 14.1861978,14.5197195 13.5097769,14.5197195 L13.5097769,14.5197195 Z M20.863159,21.8161906 L6.15627706,21.8161906 C5.47969915,21.8161906 4.93061521,21.2726419 4.93061521,20.6001705 C4.93061521,19.9275042 5.47969915,19.3839946 6.15627706,19.3839946 L20.863159,19.3839946 C21.5408363,19.3839946 22.0888209,19.9275042 22.0888209,20.6001705 C22.0888209,21.272603 21.5408363,21.8161906 20.863159,21.8161906 L20.863159,21.8161906 Z" id="Shape"></path>
            </g>
        </g>
    </g>
</svg>