<svg width="310" height="310" viewBox="0 0 310 310" xmlns="http://www.w3.org/2000/svg"><title>4FC8EB36-E895-4F16-A117-6B91418A40A4</title><defs><linearGradient x1="49.997%" y1="1.74%" x2="49.997%" y2="106.898%" id="a"><stop stop-color="#C3ECA6" stop-opacity=".8" offset="0%"/><stop stop-color="#FFF" stop-opacity=".2" offset="100%"/></linearGradient></defs><g transform="translate(6 16)" fill="none" fill-rule="evenodd"><path d="M282.755 75.432h-64.474c-6.555 0-11.89-5.331-11.89-11.881s5.335-11.881 11.89-11.881H257.758c6.554 0 11.889-5.332 11.889-11.882s-5.335-11.88-11.89-11.88H156.703c-69.047 0-124.985 55.902-124.985 124.904s55.938 124.904 124.985 124.904 124.986-55.902 124.986-124.904c0-19.345-4.42-37.624-12.346-54.075h13.413c6.554 0 11.889-5.331 11.889-11.88 0-6.094-5.335-11.425-11.889-11.425z" fill="url(#a)" opacity=".2"/><g fill="#CBCBCB"><path d="M80.796 197.9H64.03c-1.22 0-2.286-1.067-2.286-2.286 0-1.218 1.067-2.284 2.286-2.284h16.766c1.22 0 2.287 1.066 2.287 2.284 0 1.219-1.067 2.285-2.287 2.285z"/><path d="M70.127 203.992v-16.755c0-1.219 1.067-2.285 2.286-2.285 1.22 0 2.286 1.066 2.286 2.285v16.755c0 1.219-1.067 2.285-2.286 2.285-1.22 0-2.286-1.066-2.286-2.285z"/></g><g fill="#CBCBCB"><path d="M59.762 60.2H42.996c-1.22 0-2.287-1.067-2.287-2.285 0-1.219 1.067-2.285 2.287-2.285h16.766c1.22 0 2.286 1.066 2.286 2.285 0 1.218-1.067 2.285-2.286 2.285z"/><path d="M49.093 66.293V49.537c0-1.219 1.067-2.285 2.286-2.285 1.22 0 2.286 1.066 2.286 2.285v16.756c0 1.218-1.067 2.284-2.286 2.284-1.22 0-2.286-1.066-2.286-2.284z"/></g><g fill="#CBCBCB"><path d="M239.62 13.741h-16.767c-1.22 0-2.286-1.066-2.286-2.285 0-1.218 1.067-2.284 2.286-2.284h16.767c1.219 0 2.286 1.066 2.286 2.284 0 1.219-1.067 2.285-2.286 2.285z"/><path d="M228.95 19.834V3.08c0-1.219 1.067-2.285 2.286-2.285 1.22 0 2.287 1.066 2.287 2.285v16.755c0 1.219-1.067 2.285-2.287 2.285-1.219 0-2.286-1.066-2.286-2.285z"/></g><g fill="#3DCB00"><path d="M59.305 94.625H49.093c-.763 0-1.372-.61-1.372-1.371 0-.762.61-1.371 1.372-1.371h10.212c.762 0 1.372.609 1.372 1.37 0 .762-.61 1.372-1.372 1.372z"/><path d="M52.903 98.433V88.227c0-.762.61-1.37 1.372-1.37.762 0 1.372.608 1.372 1.37v10.206c0 .761-.61 1.37-1.372 1.37-.762 0-1.372-.609-1.372-1.37z"/></g><path d="M28.82 105.744h-3.81c-1.067 0-1.83-.914-1.83-1.828 0-1.066.915-1.828 1.83-1.828h3.81c1.067 0 1.83.914 1.83 1.828.152.914-.763 1.828-1.83 1.828m-5.182-7.311a1.933 1.933 0 0 1-2.743 0c-.763-.762-.763-1.98 0-2.59l2.743-2.59c.762-.761 1.982-.761 2.591 0 .762.762.762 1.98 0 2.59l-2.59 2.59m-7.927 20.41c-1.067 0-1.829-.913-1.829-1.827v-3.808c0-1.066.915-1.828 1.83-1.828 1.066 0 1.828.914 1.828 1.828v3.808c0 1.066-.914 1.828-1.829 1.828m0-22.544c-1.067 0-1.829-.914-1.829-1.828v-3.808c0-1.066.915-1.828 1.83-1.828 1.066 0 1.828.914 1.828 1.828v3.808c0 .914-.914 1.828-1.829 1.828m-8.078 18.126c-.762.762-1.982.762-2.591 0-.762-.761-.762-1.98 0-2.589l2.59-2.742c.763-.761 1.982-.761 2.592 0a1.93 1.93 0 0 1 0 2.742l-2.591 2.59m0-15.994l-2.744-2.59c-.762-.761-.762-1.98 0-2.59.762-.761 1.982-.761 2.591 0l2.592 2.59c.762.762.762 1.98 0 2.59-.458.761-1.677.761-2.44 0m.458 5.33c0 1.067-.914 1.829-1.829 1.829h-3.81c-1.067 0-1.83-.914-1.83-1.828 0-1.066.915-1.828 1.83-1.828h3.81c1.067 0 1.83.762 1.83 1.828m15.546 5.331l2.591 2.742c.762.762.762 1.98 0 2.59-.762.761-1.981.761-2.59 0l-2.744-2.59a1.93 1.93 0 0 1 0-2.742c.914-.761 1.981-.761 2.743 0" fill="#CBCBCB"/><path d="M255.014 148.547h-3.048c-.762 0-1.524-.61-1.524-1.524 0-.761.61-1.523 1.524-1.523h3.048c.762 0 1.524.61 1.524 1.523 0 .914-.762 1.524-1.524 1.524m-4.115-5.789c-.61.61-1.524.61-2.134 0-.61-.609-.61-1.523 0-2.132l2.134-2.133c.61-.609 1.524-.609 2.134 0 .61.61.61 1.524 0 2.133l-2.134 2.132m-6.402 16.299c-.762 0-1.524-.61-1.524-1.523v-3.047c0-.761.61-1.523 1.524-1.523.762 0 1.524.61 1.524 1.523v3.047c0 .914-.762 1.523-1.524 1.523m0-17.974c-.762 0-1.524-.61-1.524-1.523v-3.047c0-.761.61-1.523 1.524-1.523.762 0 1.524.61 1.524 1.523v3.047c0 .761-.762 1.523-1.524 1.523m-6.402 14.47c-.61.61-1.524.61-2.133 0-.61-.609-.61-1.523 0-2.132l2.133-2.132c.61-.61 1.525-.61 2.134 0 .61.609.61 1.523 0 2.132l-2.134 2.133m0-12.796l-2.133-2.132c-.61-.61-.61-1.523 0-2.133.61-.609 1.524-.609 2.133 0l2.134 2.133c.61.61.61 1.523 0 2.132-.61.61-1.524.61-2.134 0m.305 4.265c0 .762-.61 1.524-1.524 1.524h-3.048c-.762 0-1.525-.61-1.525-1.524 0-.761.61-1.523 1.525-1.523h3.048c.915 0 1.524.762 1.524 1.523m12.499 4.266l2.134 2.132c.61.61.61 1.523 0 2.133-.61.609-1.524.609-2.134 0l-2.134-2.133c-.61-.61-.61-1.523 0-2.132.61-.61 1.524-.61 2.134 0" fill="#FF8F00" opacity=".55"/><ellipse fill="#CBCBCB" opacity=".55" cx="288.852" cy="41.159" rx="8.383" ry="8.378"/><path d="M183.528 208.41h-54.871c-10.06 0-18.29-8.226-18.29-18.28V97.063c0-10.054 8.23-18.279 18.29-18.279h54.871c10.06 0 18.291 8.225 18.291 18.279v93.069c0 10.053-8.23 18.278-18.29 18.278z" stroke="#9B9B9B" stroke-width="3" fill="#C3ECA6"/><path d="M189.016 115.645h-40.087c-1.22 0-2.287-1.066-2.287-2.285 0-1.218 1.067-2.285 2.287-2.285h40.087c1.219 0 2.286 1.067 2.286 2.285 0 1.219-1.067 2.285-2.286 2.285z" fill="#FFF"/><path d="M166.152 125.546H148.93c-1.22 0-2.287-1.066-2.287-2.285 0-1.218 1.067-2.285 2.287-2.285h17.223c1.22 0 2.287 1.067 2.287 2.285 0 1.219-1.067 2.285-2.287 2.285zM189.168 125.546h-16.157c-1.219 0-2.286-1.066-2.286-2.285 0-1.218 1.067-2.285 2.286-2.285h16.157c1.22 0 2.286 1.067 2.286 2.285 0 1.219-.914 2.285-2.286 2.285z" fill="#FFF" opacity=".23"/><ellipse fill="#CBCBCB" cx="157.464" cy="222.575" rx="42.678" ry="3.351"/><ellipse stroke="#9B9B9B" stroke-width="3" fill="#C3ECA6" cx="156.093" cy="72.842" rx="6.402" ry="6.398"/><path d="M174.383 83.657H137.65c-2.592 0-4.725-2.132-4.725-4.722 0-2.59 2.133-4.722 4.725-4.722h36.733c2.591 0 4.725 2.133 4.725 4.722 0 2.59-2.134 4.722-4.725 4.722z" fill="#9B9B9B"/><path d="M178.346 106.201H148.93c-1.22 0-2.287-1.066-2.287-2.285 0-1.218 1.067-2.285 2.287-2.285h29.417c1.22 0 2.286 1.067 2.286 2.285 0 1.219-1.066 2.285-2.286 2.285zM189.016 106.201h-4.573c-1.22 0-2.286-1.066-2.286-2.285 0-1.218 1.067-2.285 2.286-2.285h4.573c1.219 0 2.286 1.067 2.286 2.285 0 1.219-1.067 2.285-2.286 2.285z" fill="#FFF"/><path d="M153.501 134.533h-4.572c-1.22 0-2.287-1.066-2.287-2.285 0-1.218 1.067-2.285 2.287-2.285h4.572c1.22 0 2.287 1.067 2.287 2.285 0 1.371-1.067 2.285-2.287 2.285z" fill="#FFF" opacity=".23"/><g transform="translate(120.274 99.651)"><ellipse stroke="#9B9B9B" fill="#FFF" cx="9.45" cy="8.987" rx="8.84" ry="8.835"/><ellipse fill="#C3ECA6" cx="9.45" cy="8.987" rx="6.402" ry="6.398"/></g><ellipse stroke="#9B9B9B" stroke-width="3" fill="#FFF" cx="179.108" cy="176.269" rx="33.99" ry="33.968"/><ellipse stroke="#9B9B9B" opacity=".55" cx="179.108" cy="176.269" rx="23.016" ry="23.001"/><g fill="#9B9B9B"><path d="M171.182 190.74l-11.431-11.424c-1.067-1.066-1.067-2.59 0-3.656 1.067-1.066 2.59-1.066 3.658 0l11.431 11.424c1.067 1.067 1.067 2.59 0 3.656-1.066 1.066-2.743 1.066-3.658 0z"/><path d="M196.484 169.11l-21.796 21.782c-1.067 1.067-2.591 1.067-3.658 0-1.067-1.066-1.067-2.59 0-3.655l21.796-21.782c1.067-1.067 2.591-1.067 3.658 0 1.067.913 1.067 2.589 0 3.655z"/></g></g></svg>