<?xml version="1.0" encoding="UTF-8"?>
<svg width="37px" height="40px" viewBox="0 0 37 40" version="1.1" xmlns="http://www.w3.org/2000/svg" xmlns:xlink="http://www.w3.org/1999/xlink">
    <!-- Generator: sketchtool 41.1 (35376) - http://www.bohemiancoding.com/sketch -->
    <title>9CAC4082-69F6-4408-8FE8-2D80491BF2EB</title>
    <desc>Created with sketchtool.</desc>
    <defs></defs>
    <g id="Page-1" stroke="none" stroke-width="1" fill="none" fill-rule="evenodd">
        <g id="切图" transform="translate(-528.000000, -161.000000)">
            <g id="删除" transform="translate(529.000000, 164.000000)">
                <g id="Group">
                    <polygon id="Shape" fill="#000000" points="10.1037904 18.3081915 10.2058791 18.2125633"></polygon>
                    <path d="M29.6042683,9.21848332 C29.6042683,8.56933448 30.1374268,8.0426459 30.7954116,8.0426459 C31.452904,8.0426459 31.9863087,8.56933448 31.9863087,9.21848332 L31.9863087,30.0087579 C31.9863087,31.1001987 31.5343981,32.0931362 30.8077219,32.8107509 C30.7817472,32.8356807 30.7554032,32.8595161 30.7296747,32.8816489 C30.0063223,33.5585246 29.0339328,33.9757651 27.9704472,33.9757651 L6.92453591,33.9757651 C5.81919533,33.9757651 4.8147991,33.5294601 4.0873843,32.8107509 C3.36046191,32.0931362 2.9086744,31.1008068 2.9086744,30.008758 L2.9086744,9.21848332 C2.9086744,8.56933448 3.44195598,8.0426459 4.09944837,8.0426459 C4.75743317,8.0426459 5.29034546,8.56933448 5.29034546,9.21848332 L5.29034546,30.0087579 C5.29034546,30.4510499 5.47499975,30.8547918 5.77106213,31.1479911 C6.06712452,31.4404607 6.47607223,31.6228742 6.92441282,31.6228742 L27.970201,31.6228742 C28.3979834,31.6228742 28.7869884,31.4607694 29.0761571,31.1963914 C29.0912987,31.179731 29.1075483,31.1634354 29.1233055,31.1479911 C29.4193679,30.8547918 29.6040222,30.4517795 29.6040222,30.0087579 L29.6040221,9.21848332 L29.6042683,9.21848332 L29.6042683,9.21848332 Z M16.2568407,10.0646387 L16.2568407,27.5875227 C16.2568407,28.237158 16.7899992,28.7632386 17.4472453,28.7632386 C18.1048608,28.7632386 18.6374038,28.237158 18.6374038,27.5875227 L18.6374038,10.0646387 C18.6374038,9.41500346 18.1048608,8.88819325 17.4472453,8.88819325 C16.7902454,8.88819328 16.2568407,9.41500346 16.2568407,10.0646387 L16.2568407,10.0646387 L16.2568407,10.0646387 Z M9.90682581,10.0646387 L9.90682581,27.5875227 C9.90682581,28.237158 10.4401074,28.7632386 11.0971074,28.7632386 C11.754846,28.7632386 12.2872658,28.237158 12.2872658,27.5875227 L12.2872658,10.0646387 C12.2872658,9.41500346 11.754846,8.88819325 11.0971074,8.88819325 C10.4401074,8.88819328 9.90682581,9.41500346 9.90682581,10.0646387 L9.90682581,10.0646387 L9.90682581,10.0646387 Z M22.6067324,10.0646387 L22.6067324,27.5875227 C22.6067324,28.237158 23.1401371,28.7632386 23.7976295,28.7632386 C24.4547525,28.7632386 24.987911,28.237158 24.987911,27.5875227 L24.987911,10.0646387 C24.987911,9.41500346 24.4547525,8.88819325 23.7976295,8.88819325 C23.1401371,8.88819328 22.6067324,9.41500346 22.6067324,10.0646387 L22.6067324,10.0646387 L22.6067324,10.0646387 Z M1.2049308,5.35192515 C0.547192206,5.35192515 0.0140337158,4.82499336 0.0140337158,4.17596611 C0.0140337158,3.52633084 0.547315292,2.99939904 1.2049308,2.99939904 L10.719674,2.99939904 L13.352598,0.361456626 C13.5851392,0.127967349 13.8927733,0.0109794752 14.1989301,0.0109794752 L14.1989301,0.00757442574 L20.6950681,0.00757442574 C21.0567443,0.00757442574 21.3802586,0.166395764 21.5988893,0.417639976 L24.2065772,2.99939904 L33.689806,2.99939904 C34.3475446,2.99939904 34.8807031,3.52620921 34.8807031,4.17596611 C34.8807031,4.82499336 34.3475446,5.35192515 33.689806,5.35192515 L23.7169971,5.35192515 L23.7169971,5.3485201 C23.4121944,5.3485201 23.1070224,5.23311316 22.8747273,5.00278572 L20.2056111,2.35997891 L14.6924495,2.35997891 L12.1207077,4.93711687 C11.9018308,5.19115807 11.5764699,5.35192519 11.2128241,5.35192519 L1.2049308,5.35192515 L1.2049308,5.35192515 Z" id="Shape" fill="#7F7F7F"></path>
                </g>
            </g>
        </g>
    </g>
</svg>