<svg width="34" height="40" viewBox="0 0 34 40" xmlns="http://www.w3.org/2000/svg"><title>04822B53-31EE-46BC-89E2-B0899214A63B</title><path d="M32.408 32.813l-5.388-5.759a14.566 14.566 0 0 0 3.385-9.35c0-8.087-6.589-14.668-14.688-14.668-8.097 0-14.685 6.58-14.685 14.669S7.62 32.374 15.718 32.374a14.603 14.603 0 0 0 6.08-1.314 1.128 1.128 0 1 0-.935-2.054 12.369 12.369 0 0 1-5.146 1.111c-6.852 0-12.426-5.568-12.426-12.412 0-6.843 5.574-12.412 12.426-12.412 6.853 0 12.428 5.568 12.428 12.412 0 3.222-1.23 6.274-3.463 8.595a1.129 1.129 0 0 0 .031 1.596c.034.033.078.045.116.073.03.046.047.098.085.138l5.843 6.245c.221.238.523.358.825.358.277 0 .553-.1.771-.305.456-.423.48-1.137.055-1.592z" fill="#999" fill-rule="evenodd"/></svg>