<?xml version="1.0" encoding="UTF-8"?>
<svg width="100px" height="40px" viewBox="0 0 100 40" version="1.1" xmlns="http://www.w3.org/2000/svg" xmlns:xlink="http://www.w3.org/1999/xlink">
    <!-- Generator: sketchtool 41.1 (35376) - http://www.bohemiancoding.com/sketch -->
    <title>C1BFDAF7-903A-4A85-B9A8-F8D9F35AD557</title>
    <desc>Created with sketchtool.</desc>
    <defs></defs>
    <g id="Page-1" stroke="none" stroke-width="1" fill="none" fill-rule="evenodd">
        <g id="切图" transform="translate(-497.000000, -286.000000)" fill="#E3E3E3">
            <g id="未认证" transform="translate(501.000000, 288.000000)">
                <path d="M23.7151467,2.45024926 C22.9325333,1.710274 22.2738133,0.893115852 21.7978667,0 L10.09424,0 C8.40512,3.17429792 4.59509335,5.51306082 0,6.01413678 L0,15.9266201 C0.583893345,25.6124554 7.15269335,33.5892419 15.9466667,35.9904861 C17.4169636,35.5836693 18.8384792,35.0179962 20.1860267,34.3034895 L87.0933333,34.3034895 C89.8032105,34.3034895 92,32.1094616 92,29.402991 L92,7.35074776 C92,4.64427717 89.8032105,2.45024926 87.0933333,2.45024926 L23.7151467,2.45024926 Z M68.7767467,9.69318603 C70.0843733,11.0616502 71.0006933,12.0515509 71.5269333,12.6604379 L70.3530133,13.6785165 C69.5419377,12.6092388 68.6742667,11.5839831 67.7537067,10.607129 L68.7767467,9.69318603 L68.7767467,9.69318603 Z M52.8018667,9.74464126 C53.767128,10.743718 54.7122597,11.7620007 55.6366933,12.798877 L54.4799467,13.782652 C53.6310891,12.6912153 52.7415394,11.631963 51.8131733,10.607129 L52.8018667,9.74464126 L52.8018667,9.74464126 Z M28.2133333,14.7014955 C28.2133333,22.8583753 23.0650133,29.7644028 15.9466667,32.1644219 C8.82832,29.7644028 3.68,22.8583753 3.68,14.7014955 L3.68,9.02671825 C7.13184,8.03314219 10.0549867,6.13174874 12.0213333,3.67537388 L19.8707733,3.67537388 C21.8383467,6.13174874 24.7602667,8.03314219 28.2133333,9.02671825 L28.2133333,14.7014955 Z M49.2555733,25.0305212 C46.30912,23.5187174 44.0446933,21.5634185 42.4622933,19.1658497 L42.4622933,26.3769332 L41.1546667,26.3769332 L41.1546667,19.1830014 C39.4557333,21.499712 37.1851733,23.5174923 34.3466667,25.2375673 C34.0642747,24.8377154 33.7621413,24.4521414 33.4413867,24.0822748 C36.4773867,22.443058 38.87552,20.4718325 40.6357867,18.1649228 L33.7088,18.1649228 L33.7088,16.888343 L41.1546667,16.888343 L41.1546667,13.6454381 L34.6974933,13.6454381 L34.6974933,12.3688582 L41.1546667,12.3688582 L41.1546667,9.41753299 L42.4622933,9.41753299 L42.4622933,12.3676331 L48.9869333,12.3676331 L48.9869333,13.6442129 L42.4622933,13.6442129 L42.4622933,16.8871179 L49.9093867,16.8871179 L49.9093867,18.1636977 L42.9333333,18.1636977 C44.7328533,20.6372243 47.1530667,22.4994138 50.1952,23.7539414 C49.8811733,24.1447561 49.5671467,24.5710995 49.2555733,25.0305212 L49.2555733,25.0305212 Z M52.9858667,24.7364913 L51.9959467,23.6669575 C52.3541333,23.2871689 52.5332267,22.7811924 52.5332267,22.1490281 L52.5332267,16.3358118 L50.2859733,16.3358118 L50.2859733,15.0923103 L53.8408533,15.0923103 L53.8408533,22.1318764 C54.6688533,21.4531573 55.66368,20.6078213 56.82656,19.5958684 C56.8940267,20.1018449 56.9835733,20.5673922 57.0952,20.9937356 C55.9480672,21.901216 54.8347286,22.850512 53.75744,23.8397001 C53.4700551,24.1113352 53.2114953,24.4118564 52.9858667,24.7364913 L52.9858667,24.7364913 Z M65.9333333,26.0485998 C63.5474667,24.3236243 61.9221333,21.5634185 61.06224,17.7679824 C60.4464533,21.2412108 58.7278933,24.1055521 55.9041067,26.3597815 C55.5956111,25.9782811 55.2710712,25.6100051 54.93136,25.2559442 C58.39792,22.6905332 60.14224,18.9245001 60.16432,13.9553946 C60.19744,12.6665635 60.2146133,11.2184662 60.2146133,9.60742732 L61.5725333,9.60742732 C61.5623073,11.0882974 61.5430892,12.5690919 61.51488,14.0497292 C62.12944,19.3006134 63.96576,22.855925 67.0226133,24.7205647 C66.6449666,25.151134 66.2816749,25.5940542 65.9333333,26.0485998 L65.9333333,26.0485998 Z M68.67616,23.5468953 C69.01104,23.0641962 69.1790933,22.4896128 69.1790933,21.8219198 L69.1790933,16.4227956 L67.1501867,16.4227956 L67.1501867,15.1805192 L70.4707733,15.1805192 L70.4707733,21.9076786 C70.9847467,21.4017021 71.6213867,20.7229831 72.3831467,19.8727466 C72.4273067,20.2745874 72.5340267,20.7744383 72.70208,21.3735242 C71.34784,22.7542397 70.3248,23.8519513 69.63296,24.6691095 L68.67616,23.5468953 L68.67616,23.5468953 Z M83.7874667,25.4789168 L71.3932267,25.4789168 L71.3932267,24.202337 L73.7238933,24.202337 L73.7238933,14.6622915 L75.0155733,14.6622915 L75.0155733,24.202337 L77.6823467,24.202337 L77.6823467,11.5909041 L72.31568,11.5909041 L72.31568,10.3143242 L83.5188267,10.3143242 L83.5188267,11.5909041 L79.02432,11.5909041 L79.02432,16.7842074 L82.9153067,16.7842074 L82.9153067,18.0607872 L79.02432,18.0607872 L79.02432,24.202337 L83.7874667,24.202337 L83.7874667,25.4789168 L83.7874667,25.4789168 Z M9.87466665,15.7783801 L7.27290665,18.3768694 L13.3449067,24.4400112 L14.72,24.5024925 L14.8684267,24.4400112 L25.8470933,13.4763709 L23.2453333,10.8778816 L14.1066667,20.0038349 L9.87466665,15.7783801 L9.87466665,15.7783801 Z" id="Shape"></path>
            </g>
        </g>
    </g>
</svg>