<svg width="310" height="310" viewBox="0 0 310 310" xmlns="http://www.w3.org/2000/svg"><title>852D2358-0BCC-4C87-AD93-219D1C6A2CE9</title><defs><linearGradient x1="49.976%" y1="1.759%" x2="49.976%" y2="106.917%" id="a"><stop stop-color="#C3ECA6" stop-opacity=".8" offset="0%"/><stop stop-color="#FFF" stop-opacity=".2" offset="100%"/></linearGradient></defs><g transform="translate(9.5 14.27)" fill="none" fill-rule="evenodd"><path d="M271.487 78.186h-64.474c-6.554 0-11.89-5.331-11.89-11.881s5.336-11.881 11.89-11.881H246.49c6.554 0 11.889-5.331 11.889-11.881s-5.335-11.881-11.889-11.881H145.434c-69.047 0-124.985 55.902-124.985 124.904S76.387 280.47 145.434 280.47 270.42 224.568 270.42 155.566c0-19.345-4.42-37.624-12.346-54.075h13.413c6.554 0 11.89-5.33 11.89-11.88-.153-6.094-5.488-11.425-11.89-11.425z" fill="url(#a)" opacity=".2"/><g fill="#CBCBCB"><path d="M20.449 113.22H3.682c-1.219 0-2.286-1.066-2.286-2.285 0-1.218 1.067-2.284 2.286-2.284H20.45c1.22 0 2.286 1.066 2.286 2.284 0 1.22-1.067 2.285-2.286 2.285z"/><path d="M9.78 119.313v-16.755c0-1.219 1.066-2.285 2.286-2.285 1.219 0 2.286 1.066 2.286 2.285v16.755c0 1.219-1.067 2.285-2.286 2.285-1.22 0-2.287-1.066-2.287-2.285z"/></g><g fill="#CBCBCB"><path d="M34.167 62.954H17.4c-1.22 0-2.286-1.066-2.286-2.285s1.067-2.285 2.286-2.285h16.767c1.219 0 2.286 1.066 2.286 2.285s-1.067 2.285-2.286 2.285z"/><path d="M23.497 69.047V52.29c0-1.218 1.067-2.285 2.286-2.285 1.22 0 2.287 1.067 2.287 2.285v16.756c0 1.218-1.067 2.285-2.287 2.285-1.219 0-2.286-1.067-2.286-2.285z"/></g><g fill="#CBCBCB"><path d="M261.275 14.21h-16.766c-1.22 0-2.287-1.066-2.287-2.284 0-1.219 1.067-2.285 2.287-2.285h16.766c1.22 0 2.286 1.066 2.286 2.285 0 1.218-1.067 2.285-2.286 2.285z"/><path d="M250.605 20.304V3.548c0-1.218 1.067-2.285 2.287-2.285s2.286 1.067 2.286 2.285v16.756c0 1.218-1.067 2.284-2.286 2.284-1.22 0-2.287-1.066-2.287-2.284z"/></g><g fill="#3DCB00"><path d="M54.439 103.929H44.226c-.762 0-1.371-.61-1.371-1.371 0-.762.61-1.371 1.371-1.371H54.44c.762 0 1.372.61 1.372 1.37 0 .762-.61 1.372-1.372 1.372z"/><path d="M48.037 107.737V97.53c0-.761.61-1.37 1.372-1.37.762 0 1.372.609 1.372 1.37v10.206c0 .761-.61 1.37-1.372 1.37-.762 0-1.372-.609-1.372-1.37z"/></g><path d="M91.325 32.794h-3.81c-1.068 0-1.83-.914-1.83-1.828 0-1.066.915-1.828 1.83-1.828h3.81c1.067 0 1.829.914 1.829 1.828.152.914-.762 1.828-1.83 1.828m-5.182-7.311a1.933 1.933 0 0 1-2.743 0c-.762-.762-.762-1.98 0-2.59l2.743-2.59c.763-.761 1.982-.761 2.592 0 .762.762.762 1.98 0 2.59l-2.592 2.59m-7.925 20.41c-1.067 0-1.83-.913-1.83-1.827v-3.808c0-1.066.915-1.828 1.83-1.828 1.066 0 1.829.914 1.829 1.828v3.808c0 1.066-.763 1.828-1.83 1.828m0-22.544c-1.066 0-1.829-.914-1.829-1.828v-3.808c0-1.066.915-1.828 1.83-1.828 1.066 0 1.829.914 1.829 1.828v3.808c0 .914-.763 1.828-1.83 1.828m-8.078 18.126c-.762.762-1.981.762-2.591 0-.762-.761-.762-1.98 0-2.59l2.591-2.74c.762-.762 1.982-.762 2.591 0 .61.76.762 1.98 0 2.74l-2.59 2.59m0-15.993l-2.744-2.59c-.763-.762-.763-1.98 0-2.59.762-.609 1.981-.761 2.59 0l2.592 2.59c.762.762.762 1.98 0 2.59-.457.761-1.677.761-2.439 0m.457 5.33c0 1.067-.914 1.829-1.829 1.829h-3.81c-1.067 0-1.83-.914-1.83-1.828 0-1.066.915-1.828 1.83-1.828h3.81c1.067 0 1.83.762 1.83 1.828m15.546 5.331l2.592 2.742c.762.762.762 1.98 0 2.59-.762.761-1.982.761-2.592 0l-2.743-2.59a1.93 1.93 0 0 1 0-2.742 1.933 1.933 0 0 1 2.743 0" fill="#CBCBCB"/><path d="M262.71 157.557h-3.048c-.762 0-1.524-.61-1.524-1.524 0-.761.61-1.523 1.524-1.523h3.049c.762 0 1.524.61 1.524 1.523 0 .914-.762 1.524-1.524 1.524m-4.116-5.789c-.61.61-1.524.61-2.133 0-.61-.609-.61-1.523 0-2.132l2.133-2.133c.61-.609 1.525-.609 2.134 0 .61.61.61 1.524 0 2.133l-2.134 2.132m-6.401 16.299c-.762 0-1.524-.61-1.524-1.523v-3.047c0-.761.61-1.523 1.524-1.523.762 0 1.524.61 1.524 1.523v3.047c0 .914-.762 1.523-1.524 1.523m0-17.974c-.762 0-1.524-.61-1.524-1.523v-3.047c0-.761.61-1.523 1.524-1.523.762 0 1.524.61 1.524 1.523v3.047c0 .761-.762 1.523-1.524 1.523m-6.402 14.47c-.61.61-1.524.61-2.134 0-.61-.609-.61-1.523 0-2.132l2.134-2.132c.61-.61 1.524-.61 2.134 0 .61.609.61 1.523 0 2.132l-2.134 2.133m0-12.796l-2.134-2.132c-.61-.61-.61-1.523 0-2.133.61-.609 1.524-.609 2.134 0l2.134 2.133c.61.61.61 1.523 0 2.132-.61.61-1.524.61-2.134 0m.305 4.265c0 .762-.61 1.524-1.524 1.524h-3.049c-.762 0-1.524-.61-1.524-1.524 0-.761.61-1.523 1.524-1.523h3.049c.914 0 1.524.762 1.524 1.523m12.498 4.266l2.134 2.132c.61.61.61 1.523 0 2.133-.61.609-1.524.609-2.134 0l-2.133-2.133c-.61-.61-.61-1.523 0-2.132.61-.61 1.524-.61 2.133 0" fill-opacity=".55" fill="#FF8F00"/><ellipse fill="#CBCBCB" opacity=".55" cx="281.852" cy="43.914" rx="8.383" ry="8.378"/><path d="M175.766 215.886h-54.871c-10.06 0-18.291-8.226-18.291-18.279v-93.07c0-10.052 8.23-18.278 18.29-18.278h54.872c10.06 0 18.291 8.226 18.291 18.279v93.069c0 10.053-8.23 18.279-18.29 18.279z" stroke="#9B9B9B" stroke-width="3" fill="#C3ECA6"/><path d="M181.254 123.121h-40.087c-1.22 0-2.287-1.066-2.287-2.285 0-1.218 1.067-2.284 2.287-2.284h40.087c1.219 0 2.286 1.066 2.286 2.284 0 1.219-1.067 2.285-2.286 2.285z" fill="#FFF"/><path d="M158.39 133.022h-17.223c-1.22 0-2.287-1.066-2.287-2.285 0-1.218 1.067-2.284 2.287-2.284h17.223c1.22 0 2.287 1.066 2.287 2.284 0 1.219-1.067 2.285-2.287 2.285zM181.406 133.022h-16.157c-1.22 0-2.286-1.066-2.286-2.285 0-1.218 1.067-2.284 2.286-2.284h16.157c1.22 0 2.286 1.066 2.286 2.284 0 1.219-.914 2.285-2.286 2.285z" fill="#FFF" opacity=".23"/><ellipse fill="#CBCBCB" cx="151.836" cy="231.118" rx="42.678" ry="3.351"/><ellipse stroke="#9B9B9B" stroke-width="3" fill="#C3ECA6" cx="148.33" cy="80.319" rx="6.402" ry="6.398"/><path d="M166.621 90.981h-36.734c-2.59 0-4.725-2.132-4.725-4.722 0-2.59 2.134-4.722 4.725-4.722h36.734c2.591 0 4.725 2.133 4.725 4.722 0 2.59-2.134 4.722-4.725 4.722z" fill="#9B9B9B"/><path d="M170.584 113.677h-29.417c-1.22 0-2.287-1.066-2.287-2.285 0-1.218 1.067-2.284 2.287-2.284h29.417c1.22 0 2.286 1.066 2.286 2.284 0 1.219-1.067 2.285-2.286 2.285zM181.254 113.677h-4.573c-1.22 0-2.286-1.066-2.286-2.285 0-1.218 1.067-2.284 2.286-2.284h4.573c1.219 0 2.286 1.066 2.286 2.284 0 1.219-1.067 2.285-2.286 2.285z" fill="#FFF"/><path d="M145.74 142.01h-4.573c-1.22 0-2.287-1.067-2.287-2.286 0-1.218 1.067-2.284 2.287-2.284h4.572c1.22 0 2.287 1.066 2.287 2.284 0 1.219-1.067 2.285-2.287 2.285z" fill="#FFF" opacity=".23"/><g transform="translate(113.054 107.214)"><ellipse stroke="#9B9B9B" fill="#FFF" cx="8.907" cy="8.901" rx="8.84" ry="8.835"/><ellipse fill="#C3ECA6" cx="8.907" cy="8.901" rx="6.402" ry="6.398"/></g><ellipse stroke="#9B9B9B" stroke-width="3" fill="#FFF" cx="171.346" cy="183.593" rx="33.99" ry="33.968"/><ellipse stroke="#9B9B9B" opacity=".55" cx="171.346" cy="183.593" rx="23.016" ry="23.001"/><g transform="translate(162.048 166.408)" fill="#9B9B9B"><path d="M15.852 12.007c-3.658 8.225-8.078 14.318-9.908 13.556-1.829-.761-.152-8.225 3.506-16.45C13.108.887 15.547-.484 17.224.278c1.829.761 2.286 3.503-1.372 11.729z"/><ellipse cx="3.658" cy="30.895" rx="3.506" ry="3.503"/></g></g></svg>