<svg xmlns="http://www.w3.org/2000/svg" xmlns:xlink="http://www.w3.org/1999/xlink" width="224" height="224" viewBox="0 0 224 224">
    <defs>
        <path id="a" d="M0 0h224v224H0z"/>
    </defs>
    <g fill="none" fill-rule="evenodd">
        <use fill="#E9E9E9" xlink:href="#a"/>
        <path fill="#FFF" d="M88.506 96.615h21.402V92.29H88.506v4.326zm46.149 7.806h5.11v-7.806h-5.11v7.806zm0 12.132h5.11v-7.806h-5.11v7.806zm-3.649 28.563a2.14 2.14 0 0 1-2.136-2.136c0-1.18.958-2.137 2.136-2.137 1.178 0 2.137.958 2.137 2.137a2.14 2.14 0 0 1-2.137 2.136zm13.084-28.563h5.65v-7.806h-5.65v7.806zm0-19.938h1.325a4.33 4.33 0 0 1 4.325 4.326v3.48h-5.65v-7.806zm9.976 24.264V100.94c0-4.77-3.88-8.652-8.651-8.652h-15.087V120.879h9.437v7.806h-9.437v4.326h9.437v7.806h-2.677c-.892-2.502-3.278-4.3-6.082-4.3s-5.19 1.798-6.082 4.3h-2.643v-33.328h3.722v-4.326h-3.722v-6.548h3.722V92.29h-11.77v4.326h3.722v6.548h-3.722v4.326h3.722v33.328h-3.722v4.325h10.691c.893 2.502 3.278 4.3 6.082 4.3s5.19-1.798 6.082-4.3h8.327c4.77 0 8.651-3.88 8.651-8.652h-4.326a4.33 4.33 0 0 1-4.325 4.327h-1.325v-7.806h9.976v-4.326h-9.976v-7.806h9.976zm-60.072 24.237a2.14 2.14 0 0 1-2.137-2.136c0-1.18.959-2.137 2.137-2.137s2.136.958 2.136 2.137a2.14 2.14 0 0 1-2.136 2.136zm-5.488-37.938h17.075v33.639h-5.505c-.893-2.502-3.278-4.3-6.082-4.3s-5.19 1.798-6.082 4.3h-8.327a4.33 4.33 0 0 1-4.325-4.327v-15.625h-4.326v15.625c0 4.771 3.882 8.652 8.651 8.652h8.327c.892 2.502 3.278 4.3 6.082 4.3s5.19-1.798 6.082-4.3h9.832v-42.29H88.506v4.326zm8.495-23.526a4.33 4.33 0 0 1 4.326-4.326h22.346a4.33 4.33 0 0 1 4.326 4.326v4.618h4.325v-4.618c0-4.77-3.88-8.652-8.651-8.652h-22.346c-4.77 0-8.651 3.882-8.651 8.652v4.618H97v-4.618zM79.585 96.615h4.595V92.29h-4.595c-4.77 0-8.651 3.882-8.651 8.652h4.326a4.33 4.33 0 0 1 4.325-4.326zm0 10.563h.27v25.807h4.325v-30.133h-4.595c-4.77 0-8.651 3.88-8.651 8.652h4.326a4.33 4.33 0 0 1 4.325-4.326z"/>
    </g>
</svg>
