<svg xmlns="http://www.w3.org/2000/svg" width="35" height="34" viewBox="0 0 35 34">
    <g fill="#000" fill-rule="evenodd" opacity=".5">
        <path d="M10.104 18.308l.102-.095zM29.604 9.218c0-.649.533-1.175 1.191-1.175s1.191.526 1.191 1.175v20.79a3.932 3.932 0 0 1-1.178 2.803 1.946 1.946 0 0 1-.078.07 4.032 4.032 0 0 1-2.76 1.095H6.925a4.03 4.03 0 0 1-2.838-1.165 3.93 3.93 0 0 1-1.178-2.802V9.219c0-.65.533-1.176 1.19-1.176.658 0 1.191.526 1.191 1.175v20.79c0 .443.185.847.481 1.14a1.64 1.64 0 0 0 1.153.475H27.97c.428 0 .817-.162 1.106-.427a1.18 1.18 0 0 1 .047-.048c.296-.293.481-.696.481-1.14V9.219zm-13.347.847v17.523c0 .65.533 1.175 1.19 1.175.658 0 1.19-.526 1.19-1.175V10.065c0-.65-.532-1.177-1.19-1.177-.657 0-1.19.527-1.19 1.177zm-6.35 0v17.523c0 .65.533 1.175 1.19 1.175.658 0 1.19-.526 1.19-1.175V10.065c0-.65-.532-1.177-1.19-1.177-.657 0-1.19.527-1.19 1.177zm12.7 0v17.523c0 .65.533 1.175 1.19 1.175.658 0 1.19-.526 1.19-1.175V10.065c0-.65-.532-1.177-1.19-1.177-.657 0-1.19.527-1.19 1.177zM1.205 5.352c-.658 0-1.191-.527-1.191-1.176 0-.65.533-1.177 1.19-1.177h9.516L13.353.361c.232-.233.54-.35.846-.35V.008h6.496c.362 0 .685.158.904.41l2.608 2.581h9.483c.658 0 1.19.527 1.19 1.177 0 .649-.532 1.176-1.19 1.176h-9.973v-.003c-.305 0-.61-.116-.842-.346l-2.67-2.643h-5.513l-2.571 2.577a1.195 1.195 0 0 1-.908.415H1.205z"/>
    </g>
</svg>
