<svg xmlns="http://www.w3.org/2000/svg" width="32" height="34" viewBox="0 0 32 34">
    <path fill="#000" fill-rule="evenodd" d="M25.766 33.977H3.706c-2.028 0-3.678-1.637-3.678-3.648V6.007c0-2.011 1.65-3.648 3.677-3.648h17.158a1.22 1.22 0 0 1 1.226 1.216 1.22 1.22 0 0 1-1.226 1.216H3.705c-.675 0-1.226.546-1.226 1.216v24.322c0 .671.55 1.216 1.226 1.216h22.06c.677 0 1.226-.545 1.226-1.216V10.87a1.22 1.22 0 0 1 1.226-1.216 1.22 1.22 0 0 1 1.225 1.216V30.33c0 2.011-1.65 3.648-3.676 3.648zm-7.2-19.457c-.315 0-.628-.12-.867-.357a1.208 1.208 0 0 1 0-1.72L29.879.359a1.23 1.23 0 0 1 1.732 0c.48.476.48 1.244 0 1.72l-12.18 12.085a1.222 1.222 0 0 1-.866.357zm-5.056 0H6.156a1.221 1.221 0 0 1-1.225-1.216c0-.672.549-1.217 1.225-1.217h7.354c.676 0 1.225.545 1.225 1.217 0 .67-.549 1.216-1.225 1.216zm7.353 7.296H6.156A1.22 1.22 0 0 1 4.931 20.6c0-.672.549-1.216 1.225-1.216h14.707A1.22 1.22 0 0 1 22.09 20.6a1.22 1.22 0 0 1-1.226 1.216z" opacity=".5"/>
</svg>
