<svg xmlns="http://www.w3.org/2000/svg" xmlns:xlink="http://www.w3.org/1999/xlink" width="300" height="188" viewBox="0 0 300 188">
    <defs>
        <rect id="a" width="41" height="14" x="28.113" y="5.067" rx="7"/>
    </defs>
    <g fill="none" fill-rule="evenodd" transform="translate(30 22)">
        <path stroke="#082B54" stroke-linecap="round" stroke-width="5" d="M5 117h6.457m7.84 0h187.17m10.527 0h9.018m8.877 0H241"/>
        <ellipse cx="3" cy="14" fill="#082B54" rx="3" ry="3"/>
        <ellipse cx="223" cy="23" fill="#082B54" rx="3" ry="3"/>
        <circle cx="9.5" cy="34.5" r="5.5" stroke="#FF4847" stroke-dasharray="1"/>
        <ellipse cx="26" cy="21" stroke="#082B54" rx="7" ry="7"/>
        <ellipse cx="210" cy="11" stroke="#FF4847" rx="2" ry="2"/>
        <circle cx="201.5" cy="26.5" r="5.5" stroke="#082B54" stroke-dasharray="1"/>
        <path fill="#AEDFA6" d="M178.347 102.84c6.82 0 12.348-10.187 12.348-16.467 0-6.281-5.528-11.373-12.348-11.373C171.528 75 166 80.092 166 86.373c0 6.28 5.528 16.467 12.347 16.467z"/>
        <path fill="#78A48D" d="M181.347 75.338c-.96-.22-1.965-.338-3-.338C171.528 75 166 80.092 166 86.373c0 6.28 5.528 16.467 12.347 16.467 1.035 0 2.04-.235 3-.654C175.977 99.839 172 91.7 172 86.373c0-5.328 3.978-9.8 9.347-11.035z"/>
        <path stroke="#082B54" stroke-width="4" d="M178.347 102.84c6.82 0 12.348-10.187 12.348-16.467 0-6.281-5.528-11.373-12.348-11.373C171.528 75 166 80.092 166 86.373c0 6.28 5.528 16.467 12.347 16.467z"/>
        <path fill="#AEDFA6" d="M184.97 75.715c4.418 0 12.044-9.311 12.044-16.215s-3.582-12.5-8-12.5-8 5.596-8 12.5-.462 16.215 3.956 16.215z"/>
        <path fill="#78A48D" d="M191.014 47.394a5.332 5.332 0 0 0-2-.394c-4.418 0-8 5.596-8 12.5s-.462 16.215 3.956 16.215c.69 0 1.46-.227 2.265-.637-2.55-2.215-2.221-9.754-2.221-15.578s2.55-10.719 6-12.106z"/>
        <path stroke="#082B54" stroke-width="4" d="M184.97 75.715c4.418 0 12.044-9.311 12.044-16.215s-3.582-12.5-8-12.5-8 5.596-8 12.5-.462 16.215 3.956 16.215z"/>
        <path fill="#AEDFA6" d="M169.647 77.46c3.038 0 3.353-5.594 3.353-9.46 0-3.866-2.462-7-5.5-7s-5.5 3.134-5.5 7 4.61 9.46 7.647 9.46z"/>
        <path fill="#78A48D" d="M169.5 61.477a4.47 4.47 0 0 0-2-.477c-3.038 0-5.5 3.134-5.5 7s4.61 9.46 7.647 9.46c.706 0 1.264-.302 1.706-.814C168.717 74.954 166 70.968 166 68c0-2.968 1.451-5.505 3.5-6.523z"/>
        <path stroke="#082B54" stroke-width="4" d="M169.647 77.46c3.038 0 3.353-5.594 3.353-9.46 0-3.866-2.462-7-5.5-7s-5.5 3.134-5.5 7 4.61 9.46 7.647 9.46z"/>
        <path fill="#AEDFA6" d="M158.23 102.397c3.59 0 3.77-6.979 3.77-11.397s-2.91-8-6.5-8-6.5 3.582-6.5 8 5.64 11.397 9.23 11.397z"/>
        <path fill="#78A48D" d="M157.5 83.386a5.392 5.392 0 0 0-2-.386c-3.59 0-6.5 3.582-6.5 8s5.64 11.397 9.23 11.397c.698 0 1.267-.264 1.731-.721C156.661 99.781 153 94.559 153 91c0-3.56 1.889-6.576 4.5-7.614z"/>
        <path stroke="#082B54" stroke-width="4" d="M158.23 102.397c3.59 0 3.77-6.979 3.77-11.397s-2.91-8-6.5-8-6.5 3.582-6.5 8 5.64 11.397 9.23 11.397z"/>
        <path stroke="#082B54" stroke-linecap="round" stroke-width="2" d="M163.5 65.5l-4.123-4.123M165.5 70h-12.042M155.5 93h-12M157.5 89.5l8.246-8.246M169.5 66.5l2-9M181.5 93.5l17-4M172.5 91.5l-9 6M154.5 88.5l-5-6M170.5 71h4M185.5 53.5l-7-10M185.5 61h-9M189.5 55.5l10-6M192.5 64.5l5 5M170.5 84.5l-10-4M177.5 86.5l4-3M187.5 87.5l4-8M189.5 50.5l-2-7M183.5 69.5l-6-4M176 79.5v-8M181.5 78.5l6-3M158.5 95.5l4-2"/>
        <path fill="#D8D8D8" d="M182.5 100H150l5.497 19H182.5h-14.003L163 100h19.5z"/>
        <path fill="#D8D8D8" d="M164 112h24v4h-24z"/>
        <path stroke="#082B54" stroke-width="5" d="M146.326 102.5h45.348l-4.05 14h-37.248l-4.05-14z"/>
        <path stroke="#082B54" stroke-linecap="round" stroke-width="2" d="M180 102.5v5M183 102.5v8M175.5 96h-7"/>
        <g transform="translate(45 125.595)">
            <circle cx="64" cy="16.039" r="2" fill="#FF4847"/>
            <path stroke="#082B54" stroke-dasharray="1" d="M.01.039h66.98a5.008 5.008 0 0 1 5.01 5 5 5 0 0 1-5.01 5H50.01M56.002 16.039H36.998a3.001 3.001 0 0 1-2.998-3c0-1.657 1.352-3 2.998-3h13.004"/>
        </g>
        <g>
            <g stroke-width="2" transform="rotate(-16 151.073 -202.452)">
                <path stroke="#D8D8D8" stroke-linecap="round" d="M20 30h12.51"/>
                <ellipse cx="5.5" cy="25.5" stroke="#D8D8D8" rx="5.5" ry="5.5"/>
                <ellipse cx="5.5" cy="5.5" stroke="#082B54" rx="5.5" ry="5.5"/>
                <path stroke="#082B54" stroke-linecap="round" d="M20 24h16.125m4.342 0H47"/>
                <path stroke="#D8D8D8" stroke-linecap="round" d="M20 10h18.51"/>
                <path stroke="#082B54" stroke-linecap="round" d="M20 4h18.056m4.362 0H51"/>
            </g>
            <path fill="#D8D8D8" d="M126.28 115.593H70.156s-10.997-1.311-10.997-11.482.716-34.737.716-34.737l-10.327-39.61s-1.16-7.7 7.142-10.891l13.475 49.151v35.55s-.987 8.42 10.346 8.42h48.468v3.4l-2.7.199z"/>
            <path fill="#D8D8D8" d="M128.19 62.407l-3.313 17.478-58.372 13.811 54.144-18.785 2.873-14.463z"/>
            <path stroke="#082B54" stroke-width="5" d="M127.019 36.29l-18.162 17.878v12.21l-28.85 20.446 40.003-12.34 3.195-13.494H132v44.02c0 6.622-5.382 11.99-11.99 11.99H71.99C65.368 117 60 111.627 60 105.01V69.99"/>
            <path stroke="#082B54" stroke-width="5" d="M60.037 70.797l-9.93-38.57c-1.716-6.402 2.092-12.985 8.475-14.695l46.383-12.429c6.396-1.714 12.973 2.09 14.688 8.49l6.729 25.112"/>
            <path stroke="#082B54" stroke-linecap="round" stroke-width="2" d="M112 79.5v4M116 76.5v11.045"/>
            <g>
                <path fill="#FFF" d="M58.006 53.788c1.78-4.636 6.983-6.951 11.624-5.17 4.64 1.781 6.956 6.994 5.18 11.621l-19.354 50.42-12.109 9.576c-.866.686-1.728.361-1.924-.723l-2.772-15.304 19.355-50.42z"/>
                <path fill="#D8D8D8" d="M64.177 57.245a5 5 0 1 1 9.336 3.584L54.88 109.367l-9.335-3.584 18.632-48.538z"/>
                <path stroke="#082B54" stroke-linecap="round" stroke-width="2" d="M52.546 108.471l-6.535-2.508M72.332 62.509l-9.803-3.763M71.257 65.31L64.722 62.8"/>
                <path stroke="#082B54" stroke-width="5" d="M53.367 109.123l-9.871 7.807-2.26-12.479 19.103-49.767a6.496 6.496 0 0 1 8.396-3.732c3.348 1.285 5.024 5.05 3.741 8.391l-19.109 49.78z"/>
            </g>
            <g transform="rotate(-15 64.613 -109.465)">
                <use fill="#D8D8D8" xlink:href="#a"/>
                <rect width="36" height="9" x="30.613" y="7.567" stroke="#082B54" stroke-width="5" rx="4.5"/>
            </g>
        </g>
    </g>
</svg>
