<svg xmlns="http://www.w3.org/2000/svg" width="33" height="31" viewBox="0 0 33 31">
    <path fill="#FF4544" fill-rule="evenodd" d="M25.053 19.876c.37 1.732.696 3.3.98 4.702.13.592.25 1.184.358 1.776.11.592.213 1.129.31 1.611.098.482.18.894.245 1.233.065.34.11.554.131.642.065.438-.033.729-.294.871a1.812 1.812 0 0 1-.882.214c-.108 0-.266-.039-.473-.115a20.129 20.129 0 0 1-.473-.181l-8.522-4.999c-1.545.921-2.949 1.744-4.211 2.467-.544.307-1.083.614-1.616.92-.534.307-1.018.593-1.453.856-.436.263-.811.482-1.127.657a7.231 7.231 0 0 1-.636.329c-.218.11-.441.148-.67.115a1.403 1.403 0 0 1-.62-.246 1.214 1.214 0 0 1-.408-.477.877.877 0 0 1-.065-.576c.021-.088.076-.301.163-.641.087-.34.185-.745.294-1.217.109-.471.234-.992.375-1.562.142-.57.289-1.15.44-1.743l1.11-4.603a601.504 601.504 0 0 0-4.75-4.094c-.424-.362-.805-.69-1.142-.987a94.493 94.493 0 0 0-.833-.723c-.217-.187-.337-.29-.359-.313a3.922 3.922 0 0 1-.67-.805c-.184-.296-.255-.598-.211-.904.043-.307.163-.548.359-.724.196-.175.413-.285.653-.329l10.088-.92L14.9 1.297c.13-.35.315-.652.555-.904.24-.252.566-.379.98-.379.217 0 .407.05.57.148.164.1.3.214.409.346.109.131.201.263.277.394.076.132.136.242.18.33l3.656 8.812 10.089.953c.435.11.74.242.914.395.174.154.261.395.261.723 0 .307-.092.576-.277.806-.185.23-.42.51-.702.839l-6.758 6.116z"/>
</svg>
