<?xml version="1.0" encoding="UTF-8" standalone="no"?>
<svg width="750px" height="750px" viewBox="0 0 750 750" version="1.1" xmlns="http://www.w3.org/2000/svg" xmlns:xlink="http://www.w3.org/1999/xlink">
    <!-- Generator: Sketch 43.2 (39069) - http://www.bohemiancoding.com/sketch -->
    <title>Group 21</title>
    <desc>Created with Sketch.</desc>
    <defs></defs>
    <g id="Page-1" stroke="none" stroke-width="1" fill="none" fill-rule="evenodd">
        <g id="Group-21">
            <rect id="Rectangle-8" fill="#D8D8D8" x="0" y="0" width="750" height="750"></rect>
            <g id="Group-20" transform="translate(5.658005, 6.286672)" fill-rule="nonzero" fill="#FFFFFF">
                <g id="我-(1)" transform="translate(131.551527, 169.991909)">
                    <path d="M427.247999,391.083549 L426.724769,390.069768 L314.469242,357.521759 C293.794091,353.802759 277.976115,334.13237 277.976115,310.251221 C277.976115,292.795372 287.24615,280.792112 299.09774,269.220087 C337.971348,239.253006 365.115523,192.352099 365.115523,133.686785 C365.115523,131.343631 364.962013,129.045871 364.838773,126.740544 C364.88634,125.226357 365.285248,123.812683 365.285248,122.275798 C365.285248,54.7977186 310.73312,0.0816141645 243.452667,0.0816141645 C176.15816,0.0816141645 121.620086,54.7977186 121.620086,122.275798 C121.620086,123.812683 122.00386,125.226357 122.066562,126.749191 C121.943321,129.054517 121.774677,131.343631 121.774677,133.686785 C121.774677,192.352099 150.118822,239.9004 187.794622,269.220087 C200.398626,277.641607 208.914085,292.795372 208.914085,310.251221 C208.914085,334.133451 193.09719,353.802759 172.438255,357.521759 L60.182728,390.069768 L59.6443633,391.083549 C25.2128055,402.577757 0.219926846,434.635087 0.219926846,472.838873 C0.219926846,477.93372 0.128037288,487.449 0.113983591,488.927522 C65.9317712,538.451508 147.790232,567.810104 236.505817,567.810104 C331.535835,567.810104 418.700108,534.127265 486.707029,478.053687 C486.695137,476.146092 486.68757,474.307667 486.68757,472.838873 C486.688651,434.635087 461.694691,402.577757 427.247999,391.083549 Z" id="Shape"></path>
                </g>
            </g>
        </g>
    </g>
</svg>