<svg xmlns="http://www.w3.org/2000/svg" width="316" height="241" viewBox="0 0 316 241">
    <g fill="none" fill-rule="evenodd" transform="translate(25 26)">
        <circle cx="229" cy="81" r="3" fill="#082B54"/>
        <path stroke="#FE2625" d="M8.745 92.806L7.592 97.09 4.68 93.745.396 92.592l3.345-2.913 1.152-4.283 2.913 3.345 4.283 1.152z"/>
        <path stroke="#082B54" d="M261.35 100.27l-1.002 4.321-3.028-3.24-4.32-1.003 3.24-3.028 1.003-4.32 3.028 3.24 4.32 1.003z"/>
        <path stroke="#082B54" stroke-linecap="round" stroke-width="5" d="M11 188h15.457m8.84 0h164.285m9.29 0h32.14m8.877 0H256"/>
        <circle cx="8" cy="67" r="3" fill="#082B54"/>
        <ellipse cx="32" cy="73" stroke="#082B54" rx="7" ry="7"/>
        <circle cx="264" cy="79" r="2" stroke="#FF4847"/>
        <circle cx="234.5" cy="62.5" r="5.5" stroke="#082B54" stroke-dasharray="1"/>
        <g transform="translate(33 95)">
            <path fill="#D8D8D8" d="M4 31h7.5c4.142 0 7.5 3.352 7.5 7.506V83H4V31z"/>
            <rect width="3" height="51" x="40" y="31" fill="#D8D8D8" rx="1.5"/>
            <rect width="45" height="59" x="2.5" y="24.5" stroke="#082B54" stroke-width="5" rx="12"/>
            <g fill="#FFF" stroke="#082B54" stroke-width="4" transform="translate(5 81)">
                <circle cx="6" cy="6" r="6"/>
                <circle cx="35" cy="6" r="6"/>
            </g>
            <g stroke="#082B54" stroke-linecap="round" stroke-width="2">
                <path d="M10 26v15M14 25v10"/>
            </g>
            <g stroke="#082B54" transform="translate(11)">
                <rect width="23" height="1" x="2.5" y="2.5" stroke-width="5" rx=".5"/>
                <g transform="translate(5 3)">
                    <rect width="1" height="20" x=".5" y=".5" rx=".5"/>
                    <rect width="1" height="20" x="16.5" y=".5" rx=".5"/>
                </g>
            </g>
        </g>
        <g transform="translate(69)">
            <path fill="#D8D8D8" d="M106.607 183.273l-.011 4.848H27.152v-31.993.962l10.666-1.564v27.747h68.789z"/>
            <path stroke="#082B54" stroke-width="5" d="M96.746 146.881c5.479 0 9.92 4.34 9.92 9.704l-.07 31.536H27.152v-31.993.962"/>
            <path stroke="#082B54" stroke-width="5" d="M48.822 159.938c3.95 5.672 9.623 9.228 15.926 9.228 10.328 0 18.963-9.545 21.1-22.303"/>
            <path fill="#D8D8D8" d="M59.331 1.023s-44.99 7.415-44.99 54.424c0 47.01-.67 63.133-.67 63.133l-3.857 6.56s-7.96 7.051-7.96 16.34c0 9.287 4.716 12.952 14.33 12.952h19.53v-4.892H22.586s-7.91.655-7.91-6.95 7.472-13.82 7.472-13.82 2.185-2.418 2.185-6.304V56.303S22.901 18.55 53.375 5.42l8.461-3.859-2.505-.54z"/>
            <path stroke="#082B54" stroke-linecap="round" stroke-width="5" d="M34.321 154.526s-10.275-.106-16.98-.106c-6.704 0-14.897-.628-16.371-10.6-1.475-9.973 6.758-17.068 8.926-19.122 2.167-2.054 2.577-7.114 2.577-7.114l.104-40.976V53.332C12.577 23.877 36.448 0 65.91 0c29.455 0 53.333 23.87 53.333 53.332v67.692s.677 5.664 3.873 7.852c3.196 2.187 10.282 18.003-8.712 18.003h-36.29m-22.883-.97s.176 15.906-18.124 18.942c0 .122-4.617-.49-2.309-4.18 2.309-3.69 1.493-9.017.244-10.889"/>
            <path fill="#FFF" stroke="#082B54" stroke-linecap="round" stroke-width="5" d="M77.576 148.364v-30.061M55.273 145.455v-27.152"/>
            <ellipse cx="112.485" cy="80.97" fill="#FFF" stroke="#082B54" stroke-width="5" rx="12.606" ry="11.152"/>
            <ellipse cx="20.364" cy="80.97" fill="#FFF" stroke="#082B54" stroke-width="5" rx="12.606" ry="11.152"/>
            <path fill="#FFF" stroke="#082B54" stroke-width="5" d="M109.122 68.362V88.727c0 24.367-19.748 44.121-44.121 44.121-24.368 0-44.122-19.748-44.122-44.115V68.367"/>
            <path fill="#D8D8D8" d="M80.456 40.434S51.943 96.068 6.328 70.009c0 0 22.842 3.033 33.234-.67 10.393-3.703 33.349-22.917 33.349-22.917l5.422-6.131 2.354-1.437"/>
            <path fill="#FFF" d="M24.218 44.313s-4.503 14.089-9.653 16.857c-5.15 2.77-8.35 5.066-8.35 5.066s-1.906 4.142 5.02 4.142c6.928 0 21.292.607 21.292.607l20.066-7.779 6.693-4.131-9.564-8.719-10.806-9.102-14.698 3.06z"/>
            <path stroke="#082B54" stroke-linecap="round" stroke-width="5" d="M23.049 44.151S18.264 61.103 8.842 64.377c0 0-8.89 3.922 3.815 5.778C25.36 72.01 48.15 74.447 76.622 40.804c0 0 2.735-4.786 6.028.39 3.294 5.175 14.355 33.18 37.406 28.181"/>
            <path stroke="#082B54" stroke-linecap="round" stroke-width="4" d="M81.931 112.703a37.174 37.174 0 0 0-17.02-4.097 37.177 37.177 0 0 0-16.84 4.005M61.122 97.032a7.67 7.67 0 0 0 3.825 1.015 7.669 7.669 0 0 0 3.932-1.077"/>
            <g stroke="#082B54" stroke-linecap="round" stroke-width="4">
                <path d="M52.382 87.994a5.57 5.57 0 1 0-11.139 0M88.186 87.994a5.57 5.57 0 1 0-11.139 0"/>
            </g>
            <path stroke="#082B54" stroke-linecap="round" stroke-width="4" d="M64.97 161.455v5.818"/>
        </g>
        <g transform="translate(201 114)">
            <ellipse cx="28.029" cy="28.886" fill="#78A48D" stroke="#082B54" stroke-width="4" rx="5.087" ry="14.087" transform="rotate(11 28.03 28.886)"/>
            <path fill="#648B78" d="M26.155 24s2.342.412 2.342 2.305c0 1.893-.992 2.722-1.667 3.092-.675.37-1.83-.41-1.83-1.378s.165-2.79.47-3.25c.305-.461.685-.769.685-.769z"/>
            <ellipse cx="28.029" cy="28.886" stroke="#082B54" stroke-width="4" rx="5.087" ry="14.087" transform="rotate(11 28.03 28.886)"/>
            <ellipse cx="18" cy="24.652" fill="#AEDFA6" stroke="#082B54" stroke-width="4" rx="7.043" ry="24.652"/>
            <path fill="#78A48D" d="M14.155 9s2.342.412 2.342 2.305c0 1.893-.992 2.722-1.667 3.092-.675.37-1.83-.41-1.83-1.378s.165-2.79.47-3.25c.305-.461.685-.769.685-.769z"/>
            <circle cx="14.5" cy="22.5" r="2.5" fill="#78A48D"/>
            <ellipse cx="21.095" cy="38.342" fill="#78A48D" rx="2.5" ry="4" transform="rotate(9 21.095 38.342)"/>
            <ellipse cx="18" cy="24.652" stroke="#082B54" stroke-width="4" rx="7.043" ry="24.652"/>
            <ellipse cx="7.456" cy="29.626" fill="#AEDFA6" stroke="#082B54" stroke-width="4" rx="5.087" ry="14.087" transform="rotate(-10 7.456 29.626)"/>
            <ellipse cx="4.556" cy="35.63" fill="#78A48D" rx="2.5" ry="4" transform="rotate(-43 4.556 35.63)"/>
            <ellipse cx="8.838" cy="21.788" fill="#78A48D" rx="2.5" ry="1.48" transform="rotate(-43 8.838 21.788)"/>
            <ellipse cx="7.456" cy="29.626" stroke="#082B54" stroke-width="4" rx="5.087" ry="14.087" transform="rotate(-10 7.456 29.626)"/>
            <path stroke="#082B54" stroke-linecap="round" d="M23.5 9.5l-4.412 4.412M24.5 10.5l-3 3M8 34s1.72 1.93 1.18 4.124"/>
        </g>
        <path fill="#FFF" d="M203.65 157h29.7v18.992c0 6.632-5.378 12.008-11.995 12.008h-5.71c-6.625 0-11.995-5.364-11.995-12.008V157z"/>
        <path fill="#D8D8D8" d="M214 156h-7v22c0 6.631 5.376 12 12.007 12H227h-.993c-6.631 0-12.007-5.374-12.007-12.001V156z"/>
        <path stroke="#082B54" stroke-width="5" d="M204.5 158.5h28V178c0 5.247-4.256 9.5-9.507 9.5h-8.986c-5.252 0-9.507-4.251-9.507-9.5v-19.5z"/>
        <path stroke="#082B54" stroke-linecap="round" stroke-width="2" d="M223 157.5v7.071M226 157.5V169"/>
    </g>
</svg>
