<svg xmlns="http://www.w3.org/2000/svg" xmlns:xlink="http://www.w3.org/1999/xlink" width="363" height="238" viewBox="0 0 363 238">
    <defs>
        <path id="a" d="M0 0h363v238H0z"/>
    </defs>
    <g fill="none" fill-rule="evenodd">
        <use fill="#E9E9E9" xlink:href="#a"/>
        <path fill="#FFF" d="M152.349 100.261h26.002v-5.256h-26.002v5.256zm56.067 9.483h6.209v-9.483h-6.209v9.483zm0 14.74h6.209V115h-6.209v9.484zm-4.432 34.703a2.599 2.599 0 0 1-2.596-2.596 2.598 2.598 0 0 1 2.596-2.596 2.598 2.598 0 0 1 2.596 2.596 2.599 2.599 0 0 1-2.596 2.596zm15.896-34.703h6.864V115h-6.864v9.484zm0-24.223h1.609a5.261 5.261 0 0 1 5.255 5.256v4.227h-6.864v-9.483zM232 129.739v-24.222c0-5.796-4.715-10.512-10.511-10.512H203.16v34.735h11.465v9.484H203.16v5.256h11.465v9.483h-3.252c-1.084-3.04-3.983-5.224-7.39-5.224-3.406 0-6.304 2.184-7.388 5.224h-3.212v-40.49h4.522v-5.257h-4.522v-7.955h4.522v-5.256h-14.3v5.256h4.522v7.955h-4.521v5.257h4.521v40.49h-4.521v5.255h12.989c1.084 3.04 3.982 5.224 7.389 5.224 3.406 0 6.305-2.185 7.39-5.224h10.115c5.796 0 10.511-4.715 10.511-10.511h-5.256a5.261 5.261 0 0 1-5.255 5.256h-1.61v-9.483H232v-5.256h-12.12v-9.485H232zm-72.984 29.448a2.599 2.599 0 0 1-2.596-2.596 2.598 2.598 0 0 1 2.596-2.596 2.598 2.598 0 0 1 2.596 2.596 2.599 2.599 0 0 1-2.596 2.596zm-6.667-46.093h20.745v40.869h-6.689c-1.084-3.04-3.982-5.224-7.389-5.224-3.406 0-6.305 2.184-7.39 5.224h-10.115a5.261 5.261 0 0 1-5.255-5.256v-18.984H131v18.984c0 5.796 4.716 10.51 10.511 10.51h10.116c1.084 3.04 3.983 5.225 7.39 5.225 3.406 0 6.304-2.185 7.388-5.224h11.946v-51.38h-26.002v5.256zm10.32-28.583a5.261 5.261 0 0 1 5.257-5.255h27.148a5.261 5.261 0 0 1 5.256 5.255v5.611h5.255v-5.611c0-5.795-4.715-10.511-10.511-10.511h-27.148c-5.796 0-10.511 4.716-10.511 10.511v5.611h5.255v-5.611zm-21.158 15.75h5.582v-5.256h-5.582c-5.795 0-10.511 4.716-10.511 10.512h5.256a5.261 5.261 0 0 1 5.255-5.256zm0 12.833h.327v31.353h5.255v-36.609h-5.582c-5.795 0-10.511 4.715-10.511 10.511h5.256a5.261 5.261 0 0 1 5.255-5.255z"/>
    </g>
</svg>
