<?xml version="1.0" encoding="UTF-8" standalone="no"?>
<svg width="30px" height="31px" viewBox="0 0 30 31" version="1.1" xmlns="http://www.w3.org/2000/svg" xmlns:xlink="http://www.w3.org/1999/xlink">
    <defs></defs>
    <g id="Page-1" stroke="none" stroke-width="1" fill="none" fill-rule="evenodd">
        <g id="08、1我的-我的订单" transform="translate(-93.000000, -904.000000)" fill-rule="nonzero" fill="#F6A623">
            <g id="已处理" transform="translate(93.000000, 904.000000)">
                <path d="M29.6662139,18.6508918 C29.3235742,17.977622 28.9836081,17.3019312 28.6094534,16.64567 C28.1749421,15.8836634 28.1582725,15.1472939 28.5950169,14.3801661 C28.9687941,13.7236256 29.3083199,13.0478106 29.654262,12.3761548 C30.3120836,11.0990154 29.9974049,10.1527689 28.6943427,9.49508003 C27.9955705,9.14239861 27.2956975,8.79080352 26.5861058,8.46015889 C25.8258761,8.10592559 25.4270944,7.5255516 25.3233023,6.70749087 C25.2203909,5.89628948 25.095117,5.08676413 24.9456565,4.28263932 C24.7171253,3.05308074 23.8908461,2.47733136 22.6442405,2.66076418 C21.8247235,2.78137669 21.0037283,2.89963035 20.1914768,3.05916414 C19.3890383,3.21671151 18.7320031,3.00801402 18.1707711,2.4337234 C17.6252966,1.87560337 17.0725567,1.32412548 16.5144385,0.778265404 C15.4580869,-0.254979702 14.565601,-0.25935604 13.5190939,0.764857115 C12.9456585,1.32604981 12.3833886,1.89835401 11.81725,2.4667785 C11.2693852,3.01689073 10.62383,3.2115592 9.8477799,3.06186436 C9.01351186,2.90093386 8.17232437,2.77144459 7.33066512,2.65216669 C6.12828126,2.4817697 5.29797621,3.07660728 5.08120804,4.26590994 C4.93454671,5.0706555 4.79791863,5.87862895 4.69947341,6.69017176 C4.59668782,7.53762519 4.18051309,8.12259276 3.39424103,8.4822887 C2.66266426,8.81699928 1.94130941,9.17545371 1.22882407,9.54840276 C0.0404364037,10.1704914 -0.267354252,11.116831 0.327531547,12.3026885 C0.704925768,13.0549493 1.09993322,13.7987989 1.49761408,14.5409103 C1.84081983,15.1813423 1.84355616,15.8121836 1.50195449,16.4533294 C1.11622543,17.1773148 0.736220686,17.9044041 0.362003115,18.6342246 C-0.287263432,19.9006249 0.00734877049,20.8229724 1.27760637,21.4746089 C2.01267433,21.851717 2.75475615,22.2160065 3.50105253,22.5710468 C4.21372657,22.9100716 4.58354084,23.468533 4.69072973,24.2312845 C4.81355035,25.1052752 4.9420638,25.9793279 5.10246971,26.8471421 C5.2986367,27.9085384 6.17844744,28.5179016 7.24344836,28.35604 C8.10552006,28.2250298 8.9694789,28.1009101 9.82535456,27.9368758 C10.6254656,27.7835186 11.2850169,27.9815701 11.8469723,28.560175 C12.3906226,29.1199399 12.9469795,29.6679726 13.5048776,30.2140189 C14.5673938,31.2539372 15.4417318,31.2599895 16.4949696,30.2327347 C17.0693801,29.6725352 17.6365565,29.1050108 18.2001789,28.5342275 C18.7482953,27.9791182 19.3934731,27.7932954 20.1684223,27.9374035 C21.1102881,28.1125492 22.0602686,28.2454527 22.8255306,28.3676791 C24.0842767,28.3588024 24.7377893,27.8375862 24.9250868,26.801827 C25.0783216,25.9544978 25.2138489,25.1033198 25.3289637,24.2501554 C25.4357752,23.4588492 25.8214099,22.8934043 26.5601263,22.5488548 C27.2893442,22.2087747 28.009441,21.8489236 28.7259207,21.4832374 C30.00618,20.8298006 30.30919,19.9143126 29.6662139,18.6508918 Z M22.4797772,12.9328159 C19.890354,15.4888328 17.2998614,18.0437323 14.70723,20.5965212 C14.3108386,20.9868203 13.9198256,20.9815129 13.5162318,20.5810955 C12.0248656,19.1016524 10.5256679,17.6299066 9.02823154,16.1564538 C8.85294876,15.9839772 8.71899409,15.7953301 8.72154172,15.4142492 C8.84694141,14.9133007 9.3215542,14.5575465 9.81840366,14.2647368 C10.2386986,14.0170249 10.5504522,14.3355028 10.8349054,14.6166113 C11.8053297,15.5757383 12.7900333,16.5213019 13.7417436,17.4982136 C14.0423003,17.8066974 14.2132741,17.7947478 14.5129186,17.4951409 C16.5188418,15.4891742 18.5453032,13.5032578 20.5613225,11.5071921 C20.8586396,11.2127995 21.1620269,10.8489756 21.6182717,11.0555005 C22.1360682,11.2898972 22.5637859,11.6798859 22.7466172,12.2407682 C22.8335509,12.5075063 22.6711635,12.7438894 22.4797772,12.9328159 Z" id="Shape"></path>
            </g>
        </g>
    </g>
</svg>