<svg xmlns="http://www.w3.org/2000/svg" xmlns:xlink="http://www.w3.org/1999/xlink" width="248" height="112" viewBox="0 0 248 112">
    <defs>
        <path id="a" d="M59 48c0-4.97 4.024-9 8.997-9h3.006C75.972 39 80 43.03 80 48v39H59V48z"/>
    </defs>
    <g fill="none" fill-rule="evenodd" transform="translate(0 1)">
        <path stroke="#082B54" stroke-linecap="round" stroke-width="5" d="M9 108h6.457m7.84 0h186.379m12.156 0h8.18m8.877 0H245"/>
        <ellipse cx="3" cy="4" fill="#082B54" rx="3" ry="3"/>
        <circle cx="8.5" cy="23.5" r="5.5" stroke="#FF4847" stroke-dasharray="1"/>
        <circle cx="219" cy="18" r="2" stroke="#082B54"/>
        <ellipse cx="25" cy="11" stroke="#082B54" rx="2" ry="2"/>
        <circle cx="234.5" cy="5.5" r="5.5" stroke="#082B54" stroke-dasharray="1"/>
        <path stroke="#FF4847" d="M242.243 33.193L238 34.485l1.292-4.242L238 26l4.243 1.292L246.485 26l-1.292 4.243 1.292 4.242z"/>
        <g transform="translate(34 9)">
            <path fill="#D8D8D8" d="M11.6 22.007C5.15 22.22 0 27.509 0 34v40c0 6.626 5.372 12 12 12h88c4.515 0 7.87-2.42 9.077-6H20.001C14.478 80 10 75.525 10 70V28c0-2.183.582-4.23 1.6-5.993z"/>
            <path stroke="#082B54" stroke-linecap="round" stroke-width="5" d="M104.432 53.835l4.82 20.484C110.77 80.77 106.636 86 100 86H11.999C5.372 86 0 80.626 0 74V34c0-6.627 5.38-12 12.006-12h57.922"/>
            <path stroke="#082B54" stroke-linecap="round" stroke-width="2" d="M107.5 71h-12M108.5 75h-9"/>
            <circle cx="25.5" cy="87.5" r="11.5" fill="#FFF" stroke="#082B54" stroke-width="5"/>
            <path stroke="#082B54" stroke-width="5" d="M86.5 87.5h7v11h-7z"/>
            <use fill="#FFF" xlink:href="#a"/>
            <path stroke="#082B54" stroke-width="4" d="M78 85H61V48c0-3.868 3.13-7 6.997-7h3.006A7 7 0 0 1 78 48v37z"/>
            <rect width="22" height="16" x="20" y="40" fill="#D8D8D8" rx="8"/>
            <rect width="21" height="14" x="14" y="41" stroke="#082B54" stroke-width="4" rx="7"/>
            <path fill="#D8D8D8" d="M94.171.713C83.733 3.317 76 12.755 76 24c0 13.255 10.745 24 24 24 4.718 0 9.118-1.361 12.829-3.713A24.052 24.052 0 0 1 107 45c-13.255 0-24-10.745-24-24C83 12.463 87.457 4.967 94.171.713z"/>
            <ellipse cx="100" cy="24" stroke="#082B54" stroke-width="5" rx="24" ry="24"/>
            <path stroke="#082B54" stroke-linecap="round" stroke-width="4" d="M99 10v14M99.5 24.5h10"/>
        </g>
        <path fill="#AEDFA6" d="M193.347 92.84c6.82 0 12.348-10.187 12.348-16.467 0-6.281-5.528-11.373-12.348-11.373C186.528 65 181 70.092 181 76.373c0 6.28 5.528 16.467 12.347 16.467z"/>
        <path fill="#78A48D" d="M196.347 65.338c-.96-.22-1.965-.338-3-.338C186.528 65 181 70.092 181 76.373c0 6.28 5.528 16.467 12.347 16.467 1.035 0 2.04-.235 3-.654C190.977 89.839 187 81.7 187 76.373c0-5.328 3.978-9.8 9.347-11.035z"/>
        <path stroke="#082B54" stroke-width="4" d="M193.347 92.84c6.82 0 12.348-10.187 12.348-16.467 0-6.281-5.528-11.373-12.348-11.373C186.528 65 181 70.092 181 76.373c0 6.28 5.528 16.467 12.347 16.467z"/>
        <path fill="#AEDFA6" d="M199.97 65.715c4.418 0 12.044-9.311 12.044-16.215s-3.582-12.5-8-12.5-8 5.596-8 12.5-.462 16.215 3.956 16.215z"/>
        <path fill="#78A48D" d="M206.014 37.394a5.332 5.332 0 0 0-2-.394c-4.418 0-8 5.596-8 12.5s-.462 16.215 3.956 16.215c.69 0 1.46-.227 2.265-.637-2.55-2.215-2.221-9.754-2.221-15.578s2.55-10.719 6-12.106z"/>
        <path stroke="#082B54" stroke-width="4" d="M199.97 65.715c4.418 0 12.044-9.311 12.044-16.215s-3.582-12.5-8-12.5-8 5.596-8 12.5-.462 16.215 3.956 16.215z"/>
        <path fill="#AEDFA6" d="M184.647 67.46c3.038 0 3.353-5.594 3.353-9.46 0-3.866-2.462-7-5.5-7s-5.5 3.134-5.5 7 4.61 9.46 7.647 9.46z"/>
        <path fill="#78A48D" d="M184.5 51.477a4.47 4.47 0 0 0-2-.477c-3.038 0-5.5 3.134-5.5 7s4.61 9.46 7.647 9.46c.706 0 1.264-.302 1.706-.814C183.717 64.954 181 60.968 181 58c0-2.968 1.451-5.505 3.5-6.523z"/>
        <path stroke="#082B54" stroke-width="4" d="M184.647 67.46c3.038 0 3.353-5.594 3.353-9.46 0-3.866-2.462-7-5.5-7s-5.5 3.134-5.5 7 4.61 9.46 7.647 9.46z"/>
        <path fill="#AEDFA6" d="M173.23 92.397c3.59 0 3.77-6.979 3.77-11.397s-2.91-8-6.5-8-6.5 3.582-6.5 8 5.64 11.397 9.23 11.397z"/>
        <path fill="#78A48D" d="M172.5 73.386a5.392 5.392 0 0 0-2-.386c-3.59 0-6.5 3.582-6.5 8s5.64 11.397 9.23 11.397c.698 0 1.267-.264 1.731-.721C171.661 89.781 168 84.559 168 81c0-3.56 1.889-6.576 4.5-7.614z"/>
        <path stroke="#082B54" stroke-width="4" d="M173.23 92.397c3.59 0 3.77-6.979 3.77-11.397s-2.91-8-6.5-8-6.5 3.582-6.5 8 5.64 11.397 9.23 11.397z"/>
        <path stroke="#082B54" stroke-linecap="round" stroke-width="2" d="M178.5 55.5l-4.123-4.123M180.5 60h-12.042M170.5 83h-12M172.5 79.5l8.246-8.246M184.5 56.5l2-9M196.5 83.5l17-4M187.5 81.5l-9 6M169.5 78.5l-5-6M185.5 61h4M200.5 43.5l-7-10M200.5 51h-9M204.5 45.5l10-6M207.5 54.5l5 5M185.5 74.5l-10-4M192.5 76.5l4-3M202.5 77.5l4-8M204.5 40.5l-2-7M198.5 59.5l-6-4M191 69.5v-8M196.5 68.5l6-3M173.5 85.5l4-2"/>
        <path fill="#D8D8D8" d="M197.5 90H165l5.497 19H197.5h-14.003L178 90h19.5z"/>
        <path fill="#D8D8D8" d="M179 102h24v4h-24z"/>
        <path stroke="#082B54" stroke-width="5" d="M161.326 92.5h45.348l-4.05 14h-37.248l-4.05-14z"/>
        <path stroke="#082B54" stroke-linecap="round" stroke-width="2" d="M195 92.5v5M198 92.5v8M190.5 86h-7"/>
    </g>
</svg>
