<svg xmlns="http://www.w3.org/2000/svg" width="30" height="34" viewBox="0 0 30 34">
    <g fill="none" fill-rule="evenodd" stroke="#666" stroke-width="2">
        <path d="M15 16.907c-4.56 0-8.257-3.56-8.257-7.914 0-4.354 3.697-7.914 8.257-7.914s8.257 3.56 8.257 7.914c0 4.354-3.697 7.914-8.257 7.914z"/>
        <path stroke-linecap="round" d="M29 28.32v.634c0 3.076-5.003 3.076-10.797 3.076h-6.407C5.765 32.03 1 32.03 1 28.954v-.634c0-5.884 4.842-10.67 10.796-10.67h5.407"/>
        <g stroke-linecap="round">
            <path d="M22.778 17.375l2.46 2.372M28.222 17.375l-2.46 2.372M22.389 20h6.222M22.389 23h6.222M25.5 19.625v6"/>
        </g>
    </g>
</svg>
