<svg xmlns="http://www.w3.org/2000/svg" width="35" height="35" viewBox="0 0 35 35">
    <path fill="none" fill-rule="evenodd" stroke="#FFF" stroke-width="2" d="M10.603 14.114a.634.634 0 0 0-.12.718c1.858 3.87 5.513 8.053 9.75 9.588.14.05.296.016.402-.09l2.713-2.708a.383.383 0 0 1 .338-.106c1.162.207 7.133 1.295 8.586 2.004 1.398.677 1.859 2.18 1.64 4.036-.236 1.995-2.844 6.39-7.546 6.438-4.7.048-11.622-3.497-16.581-8.73C4.825 20.035.403 13.404 1.11 7.773 1.82 2.14 6.718 1.135 7.944 1.044c1.24-.09 2.223.273 2.97 1.2.948 1.177 2.257 6.221 2.838 8.472a.177.177 0 0 1-.044.167l-3.105 3.23z"/>
</svg>
