<svg xmlns="http://www.w3.org/2000/svg" width="44" height="44" viewBox="0 0 44 44">
    <g fill="none" fill-rule="evenodd">
        <ellipse cx="22" cy="22" fill="#FF4847" rx="12" ry="12"/>
        <circle cx="22" cy="22" r="6" fill="#FFF"/>
        <path stroke="#666" stroke-width="2" d="M22 3.026v.95l.948.049c9.186.476 16.551 7.84 17.027 17.027l.05.948h2.973c.004 0 .002-.002.002 0h-2.976l-.049.948c-.476 9.186-7.84 16.551-17.027 17.027l-.948.05v2.973c0 .004.002.002 0 .002v-2.976l-.948-.049C11.866 39.5 4.5 32.135 4.025 22.948L3.975 22H1.002C.998 22 1 22.002 1 22h2.976l.049-.948C4.5 11.866 11.865 4.5 21.052 4.025l.948-.05V1.002C22 .998 21.998 1 22 1v2.026z"/>
    </g>
</svg>
