<svg xmlns="http://www.w3.org/2000/svg" width="38" height="38" viewBox="0 0 38 38">
    <g fill="none" fill-rule="evenodd" stroke="#666" stroke-width="2">
        <path d="M23.92 4.776l.293.293h5.866c1.66 0 3.001 1.341 3.001 3.001v5.867l.293.293 2.651 2.651a3.001 3.001 0 0 1 0 4.238l-2.651 2.651-.293.293v6.016c0 1.66-1.341 3.001-3 3.001h-6.017l-.293.293-2.651 2.651a3.001 3.001 0 0 1-4.238 0l-2.651-2.651-.293-.293H8.07c-1.659 0-3-1.341-3-3v-5.867l-.294-.293-2.8-2.801a3.001 3.001 0 0 1 0-4.238l2.8-2.8.293-.294V8.07c0-1.659 1.341-3 3.001-3h5.717l.293-.294 2.801-2.8a3.001 3.001 0 0 1 4.238 0l2.8 2.8z"/>
        <circle cx="18.92" cy="18.92" r="7"/>
    </g>
</svg>
