<svg xmlns="http://www.w3.org/2000/svg" width="30" height="30" viewBox="0 0 30 30">
    <path fill="none" fill-rule="evenodd" stroke="#666" stroke-width="2" d="M9.148 12.127a.538.538 0 0 0-.101.61c1.575 3.284 4.677 6.832 8.272 8.135a.326.326 0 0 0 .34-.076l2.303-2.298a.325.325 0 0 1 .286-.09c.987.176 6.053 1.098 7.286 1.7 1.186.575 1.577 1.85 1.392 3.424-.201 1.693-2.414 5.422-6.403 5.463-3.988.04-9.862-2.968-14.07-7.407-4.207-4.437-7.96-10.064-7.36-14.842.601-4.778 4.758-5.631 5.799-5.708 1.052-.077 1.886.231 2.52 1.017.804.999 1.915 5.28 2.408 7.189a.15.15 0 0 1-.037.142l-2.635 2.741z"/>
</svg>
