<svg xmlns="http://www.w3.org/2000/svg" width="53" height="47" viewBox="0 0 53 47">
    <path fill="#00C800" fill-rule="evenodd" d="M19.379 29.127a1.732 1.732 0 0 1-2.3-.702l-.114-.25-4.75-10.42a.902.902 0 0 1-.083-.367.87.87 0 0 1 1.39-.697l5.605 3.99a2.593 2.593 0 0 0 2.317.265L47.8 9.216C43.077 3.65 35.296.01 26.491.01 12.082.01.4 9.743.4 21.75c0 6.55 3.515 12.446 9.015 16.43.442.316.73.833.73 1.417 0 .193-.041.37-.091.554l-1.176 4.385c-.054.206-.14.42-.14.636 0 .48.39.87.87.87.189 0 .343-.07.502-.162l5.712-3.297c.43-.249.884-.402 1.385-.402.267 0 .524.04.767.115a30.86 30.86 0 0 0 8.516 1.193c14.408 0 26.089-9.733 26.089-21.74 0-3.636-1.077-7.06-2.972-10.073L19.57 29.017l-.19.11z"/>
</svg>
